<?xml version="1.0" encoding="UTF-8" standalone="no"?>
<svg
   width="56.692867"
   height="56.692867"
   viewBox="0 0 14.999988 14.999988"
   version="1.1"
   id="svg8"
   inkscape:version="1.3.2 (091e20e, 2023-11-25, custom)"
   sodipodi:docname="Icone.svg"
   xml:space="preserve"
   xmlns:inkscape="http://www.inkscape.org/namespaces/inkscape"
   xmlns:sodipodi="http://sodipodi.sourceforge.net/DTD/sodipodi-0.dtd"
   xmlns:xlink="http://www.w3.org/1999/xlink"
   xmlns="http://www.w3.org/2000/svg"
   xmlns:svg="http://www.w3.org/2000/svg"
   xmlns:rdf="http://www.w3.org/1999/02/22-rdf-syntax-ns#"
   xmlns:cc="http://creativecommons.org/ns#"
   xmlns:dc="http://purl.org/dc/elements/1.1/"><defs
     id="defs2"><linearGradient
       inkscape:collect="always"
       id="linearGradient2520"><stop
         style="stop-color:#999999;stop-opacity:1;"
         offset="0.65135133"
         id="stop2516" /><stop
         style="stop-color:#262626;stop-opacity:1;"
         offset="1"
         id="stop2518" /></linearGradient><radialGradient
       inkscape:collect="always"
       xlink:href="#linearGradient2520"
       id="radialGradient2524-95-9"
       cx="115.92648"
       cy="1235.3082"
       fx="115.92648"
       fy="1235.3082"
       r="26.458334"
       gradientUnits="userSpaceOnUse"
       gradientTransform="matrix(0.77761798,0,0,0.77761798,-402.40885,354.73752)" /></defs><sodipodi:namedview
     id="base"
     pagecolor="#ffffff"
     bordercolor="#666666"
     borderopacity="1.0"
     inkscape:pageopacity="0"
     inkscape:pageshadow="2"
     inkscape:zoom="0.24999999"
     inkscape:cx="680.00003"
     inkscape:cy="3812.0001"
     inkscape:document-units="px"
     inkscape:current-layer="g3581-5-2"
     inkscape:document-rotation="0"
     showgrid="false"
     units="px"
     showborder="false"
     inkscape:pagecheckerboard="true"
     inkscape:snap-global="false"
     inkscape:window-width="1920"
     inkscape:window-height="1138"
     inkscape:window-x="-6"
     inkscape:window-y="1193"
     inkscape:window-maximized="1"
     inkscape:snap-bbox="true"
     inkscape:snap-object-midpoints="true"
     inkscape:bbox-nodes="false"
     inkscape:snap-smooth-nodes="true"
     inkscape:object-paths="true"
     inkscape:snap-intersection-paths="true"
     inkscape:snap-bbox-midpoints="true"
     inkscape:snap-bbox-edge-midpoints="true"
     inkscape:bbox-paths="true"
     inkscape:snap-midpoints="true"
     inkscape:snap-center="true"
     inkscape:snap-nodes="false"
     inkscape:showpageshadow="2"
     inkscape:deskcolor="#ffffff"><inkscape:page
       x="-8.9213103e-07"
       y="8.6592245e-06"
       width="14.999988"
       height="14.999989"
       id="page1"
       margin="0"
       bleed="0" /></sodipodi:namedview><metadata
     id="metadata5"><rdf:RDF><cc:Work
         rdf:about=""><dc:format>image/svg+xml</dc:format><dc:type
           rdf:resource="http://purl.org/dc/dcmitype/StillImage" /></cc:Work></rdf:RDF></metadata><g
     inkscape:groupmode="layer"
     id="layer2"
     inkscape:label="Siemens 22"
     style="display:inline"
     transform="translate(-251.11898,-1010.6831)"><circle
       style="fill:url(#radialGradient2524-95-9);fill-opacity:1;stroke-width:0.155524;stroke-miterlimit:3.5;paint-order:stroke markers fill"
       id="path1915-1-2"
       cx="-311.24393"
       cy="1316.2084"
       r="20.574476"
       inkscape:export-filename="..\..\..\..\..\..\00_Travasi\05_NuovoHmi\Images\button_resetReleased.png"
       inkscape:export-xdpi="96"
       inkscape:export-ydpi="96"
       transform="rotate(-26.125182)" /><text
       xml:space="preserve"
       style="font-weight:bold;font-size:8.48951px;font-family:Calibri;-inkscape-font-specification:'Calibri Bold';text-align:end;text-anchor:end;fill:#ff0000;stroke:none;stroke-width:8.35633;stroke-miterlimit:3.5;paint-order:stroke markers fill"
       id="text2598"
       transform="translate(0,-1.403165)"><textPath
         xlink:href="#path1915-1-2"
         startOffset="100%"
         id="textPath2799"><tspan
           id="tspan2596"
           style="fill:#ffffff;stroke:none;stroke-width:8.35633">EMERGENCY</tspan></textPath></text><g
       id="Button_RotateCcw"
       inkscape:export-filename="Images\icon_rotateCcw.svg"
       inkscape:export-xdpi="96"
       inkscape:export-ydpi="96"
       transform="matrix(1,0,0,-1,88.555801,2036.3662)"><rect
         style="display:inline;fill:#666666;fill-opacity:1;stroke-width:0.0864241;stroke-linecap:round;paint-order:stroke markers fill"
         id="Button_RotateCcw_Background"
         width="14.999988"
         height="14.999986"
         x="162.56317"
         y="1010.6831"
         rx="4.4951854"
         ry="4.4951854"
         inkscape:export-filename="..\..\..\..\..\..\00_Travasi\05_NuovoHmi\Images\icon_oldValue.png"
         inkscape:export-xdpi="96"
         inkscape:export-ydpi="96" /><path
         style="fill:#ffffff;stroke-width:0.00944489"
         d="m 174.31842,1016.5301 c 0.11897,0.3 0.16009,0.4272 0.21291,0.6561 0.0866,0.3767 0.11518,0.5831 0.11773,0.8515 0.001,0.1363 0.005,0.2655 0.009,0.2871 0.0171,0.1 -0.0609,0.5985 -0.14619,0.9308 -0.0903,0.3516 -0.25535,0.7919 -0.36479,0.973 -0.23538,0.3895 -0.29458,0.4798 -0.3951,0.6023 -0.26736,0.3259 -0.51612,0.5674 -0.86451,0.8394 -0.0548,0.043 -0.24606,0.161 -0.42534,0.2629 -0.48619,0.2761 -1.04445,0.4729 -1.48677,0.5236 -0.0596,0.01 -0.178,0.022 -0.26345,0.035 -0.0854,0.012 -0.28359,0.017 -0.44067,0.011 -0.15707,-0.01 -0.31182,-0.011 -0.34397,-0.012 -0.22949,0 -0.8574,-0.1513 -1.14692,-0.2674 -0.46657,-0.1871 -1.03958,-0.5454 -1.35839,-0.8496 -0.38059,-0.363 -0.59901,-0.6463 -0.86508,-1.1221 l -0.21399,-0.3907 -0.19085,0.7001 c -0.21193,0.7773 -0.25305,0.8659 -0.45784,0.986 -0.21984,0.1292 -0.4805,0.1051 -0.68417,-0.063 -0.12187,-0.1011 -0.20535,-0.2697 -0.21362,-0.438 -0.007,-0.1236 0.73968,-2.9145 0.80653,-3.0165 0.0805,-0.1229 0.26712,-0.2445 0.4274,-0.2785 0.12971,-0.028 0.23156,0 1.59389,0.3603 1.32492,0.3548 1.46397,0.3976 1.55246,0.4779 0.19943,0.1815 0.27085,0.3811 0.21535,0.6068 -0.0421,0.172 -0.12821,0.2883 -0.27823,0.3763 -0.19974,0.1176 -0.30423,0.1093 -1.01959,-0.079 -0.35047,-0.092 -0.64038,-0.1555 -0.64423,-0.1412 -0.003,0.014 0.0868,0.1883 0.20133,0.3867 0.17306,0.2998 0.23696,0.3904 0.37718,0.5373 0.31377,0.3305 0.60427,0.5458 0.94668,0.7015 0.0734,0.033 0.13906,0.071 0.14648,0.084 0.0172,0.03 0.81976,0.2457 0.84955,0.2285 0.0121,-0.01 0.10861,-0.01 0.21336,0 0.41671,0.035 0.87731,-0.04 1.34051,-0.2171 0.0456,-0.017 0.21419,-0.1077 0.37489,-0.2003 0.47708,-0.2753 0.77147,-0.5586 1.07338,-1.0331 0.2013,-0.3163 0.28797,-0.5238 0.38964,-0.9333 0.19287,-0.7767 0.084,-1.5567 -0.31449,-2.2527 -0.079,-0.1369 -0.18327,-0.2974 -0.22713,-0.3594 -0.2302,-0.3007 -0.59574,-0.6251 -0.897,-0.7951 -0.33462,-0.1887 -0.84858,-0.3767 -1.07441,-0.3929 -0.0579,0 -0.19778,-0.016 -0.31084,-0.026 -0.28569,-0.026 -0.78846,0.012 -0.95177,0.072 -0.0915,0.034 -0.4383,0.1402 -0.52915,0.1629 -0.13869,0.035 -0.32629,-0.01 -0.45852,-0.1084 -0.0948,-0.07 -0.12641,-0.1109 -0.18025,-0.2282 -0.0789,-0.1726 -0.0859,-0.2628 -0.0315,-0.4309 0.0702,-0.2171 0.23646,-0.3433 0.61676,-0.4678 0.28344,-0.093 0.59551,-0.1605 0.84443,-0.1832 0.11059,-0.01 0.20247,-0.023 0.20432,-0.029 0.005,-0.017 0.52615,10e-5 0.78011,0.025 0.2675,0.026 0.84565,0.1623 1.01254,0.2378 0.4846,0.2191 0.81844,0.4004 1.03015,0.5595 0.22521,0.169 0.49432,0.4047 0.58588,0.5129 0.0259,0.025 0.0756,0.087 0.11778,0.134 0.24279,0.2706 0.6137,0.865 0.74214,1.1875 z"
         id="Button_RotateCcw_Icon" /></g></g></svg>
