<?xml version="1.0" encoding="UTF-8" standalone="no"?>
<svg
   width="56.692867"
   height="56.692867"
   viewBox="0 0 14.999988 14.999988"
   version="1.1"
   id="svg8"
   inkscape:version="1.3.2 (091e20e, 2023-11-25, custom)"
   sodipodi:docname="Icone.svg"
   xml:space="preserve"
   xmlns:inkscape="http://www.inkscape.org/namespaces/inkscape"
   xmlns:sodipodi="http://sodipodi.sourceforge.net/DTD/sodipodi-0.dtd"
   xmlns:xlink="http://www.w3.org/1999/xlink"
   xmlns="http://www.w3.org/2000/svg"
   xmlns:svg="http://www.w3.org/2000/svg"
   xmlns:rdf="http://www.w3.org/1999/02/22-rdf-syntax-ns#"
   xmlns:cc="http://creativecommons.org/ns#"
   xmlns:dc="http://purl.org/dc/elements/1.1/"><defs
     id="defs2"><linearGradient
       inkscape:collect="always"
       id="linearGradient2520"><stop
         style="stop-color:#999999;stop-opacity:1;"
         offset="0.65135133"
         id="stop2516" /><stop
         style="stop-color:#262626;stop-opacity:1;"
         offset="1"
         id="stop2518" /></linearGradient><radialGradient
       inkscape:collect="always"
       xlink:href="#linearGradient2520"
       id="radialGradient2524-95-9"
       cx="115.92648"
       cy="1235.3082"
       fx="115.92648"
       fy="1235.3082"
       r="26.458334"
       gradientUnits="userSpaceOnUse"
       gradientTransform="matrix(0.77761798,0,0,0.77761798,-402.40885,354.73752)" /></defs><sodipodi:namedview
     id="base"
     pagecolor="#ffffff"
     bordercolor="#666666"
     borderopacity="1.0"
     inkscape:pageopacity="0"
     inkscape:pageshadow="2"
     inkscape:zoom="0.99999996"
     inkscape:cx="782.00003"
     inkscape:cy="3856.0002"
     inkscape:document-units="px"
     inkscape:current-layer="layer2"
     inkscape:document-rotation="0"
     showgrid="false"
     units="px"
     showborder="false"
     inkscape:pagecheckerboard="true"
     inkscape:snap-global="false"
     inkscape:window-width="1920"
     inkscape:window-height="1138"
     inkscape:window-x="-6"
     inkscape:window-y="1193"
     inkscape:window-maximized="1"
     inkscape:snap-bbox="true"
     inkscape:snap-object-midpoints="true"
     inkscape:bbox-nodes="false"
     inkscape:snap-smooth-nodes="true"
     inkscape:object-paths="true"
     inkscape:snap-intersection-paths="true"
     inkscape:snap-bbox-midpoints="true"
     inkscape:snap-bbox-edge-midpoints="true"
     inkscape:bbox-paths="true"
     inkscape:snap-midpoints="true"
     inkscape:snap-center="true"
     inkscape:snap-nodes="false"
     inkscape:showpageshadow="2"
     inkscape:deskcolor="#ffffff"><inkscape:page
       x="-2.5744333e-07"
       y="8.3425211e-06"
       width="14.999988"
       height="14.999989"
       id="page1"
       margin="0"
       bleed="0" /></sodipodi:namedview><metadata
     id="metadata5"><rdf:RDF><cc:Work
         rdf:about=""><dc:format>image/svg+xml</dc:format><dc:type
           rdf:resource="http://purl.org/dc/dcmitype/StillImage" /></cc:Work></rdf:RDF></metadata><g
     inkscape:groupmode="layer"
     id="layer2"
     inkscape:label="Siemens 22"
     style="display:inline"
     transform="translate(-228.98005,-973.7183)"><g
       id="Icon_AbsHome"
       style="display:inline"
       transform="translate(43.490737,810.68319)"
       inkscape:export-filename="..\..\..\..\..\..\00_Travasi\05_NuovoHmi\Images\icon_minValue.png"
       inkscape:export-xdpi="96"
       inkscape:export-ydpi="96"><rect
         style="display:inline;fill:#f0f0f0;fill-opacity:1;stroke-width:0.0864241;stroke-linecap:round;paint-order:stroke markers fill"
         id="Icon_AbsHome_Background"
         width="14.999988"
         height="14.999986"
         x="185.48932"
         y="163.03506"
         rx="4.4951854"
         ry="4.4951854"
         inkscape:export-filename="..\..\..\..\..\..\00_Travasi\05_NuovoHmi\Images\icon_arrow.png"
         inkscape:export-xdpi="96"
         inkscape:export-ydpi="96" /><path
         style="display:inline;fill:#000000;stroke:none;stroke-width:0.191536;stroke-dasharray:none;stroke-opacity:1"
         d="m 192.79558,175.71273 c -0.0581,-0.0331 -0.11401,-0.0925 -0.14844,-0.15771 -0.0549,-0.10398 -0.0552,-0.11043 -0.0552,-0.9653 0,-0.69845 -0.006,-0.86294 -0.0319,-0.87287 -0.0175,-0.007 -0.095,-0.0198 -0.17219,-0.0289 -0.34772,-0.0413 -0.93778,-0.29494 -1.28424,-0.55197 l -0.0752,-0.0558 0.27345,-0.27144 c 0.30238,-0.30015 0.26451,-0.28708 0.46578,-0.16068 0.15696,0.0986 0.45101,0.21672 0.63483,0.25507 0.0976,0.0204 0.18021,0.0371 0.18347,0.0371 0.004,0 0.006,-0.45956 0.006,-1.02126 v -1.02129 h -1.00941 -1.0094 v 0.0797 c 0,0.12188 0.17218,0.58597 0.29033,0.78254 l 0.10534,0.17526 -0.25128,0.25134 c -0.1382,0.13822 -0.26304,0.2548 -0.27743,0.25903 -0.0234,0.007 -0.19947,-0.19804 -0.19947,-0.23226 0,-0.008 -0.0202,-0.0423 -0.0449,-0.077 -0.12978,-0.18237 -0.35949,-0.8137 -0.40094,-1.10195 l -0.018,-0.12489 -0.90221,-0.0118 c -0.95612,-0.0125 -0.94298,-0.0109 -1.0566,-0.13324 -0.0523,-0.0563 -0.0594,-0.085 -0.0594,-0.24125 v -0.17733 l 0.10444,-0.09 c 0.0575,-0.0495 0.13628,-0.0963 0.17517,-0.1041 0.039,-0.008 0.44879,-0.0142 0.91089,-0.0142 h 0.84018 v -0.0739 c 0,-0.0988 0.1581,-0.64681 0.22535,-0.7811 0.0294,-0.0588 0.061,-0.13112 0.0702,-0.16075 0.0189,-0.061 0.17519,-0.32348 0.27302,-0.45854 l 0.065,-0.0897 0.27709,0.27782 0.27709,0.27782 -0.0415,0.0588 c -0.15448,0.21935 -0.32488,0.6196 -0.35254,0.82811 l -0.0161,0.12144 h 1.01246 1.01247 v -1.01262 -1.01265 l -0.11282,0.0153 c -0.10474,0.0143 -0.32229,0.0854 -0.53457,0.17466 -0.049,0.0206 -0.15062,0.0781 -0.22564,0.12777 l -0.13637,0.0902 -0.27717,-0.2757 -0.27716,-0.27569 0.0753,-0.0541 c 0.17232,-0.12388 0.42032,-0.26461 0.60966,-0.34596 0.20463,-0.0879 0.66529,-0.22618 0.79566,-0.23883 l 0.0712,-0.007 0.0119,-0.87878 c 0.013,-0.95583 0.0118,-0.94781 0.15409,-1.08066 0.0562,-0.0525 0.0845,-0.0594 0.24255,-0.0594 h 0.17894 l 0.0919,0.10676 0.0919,0.10676 0.006,0.90235 0.006,0.90237 0.10688,0.0155 c 0.0588,0.008 0.16833,0.0327 0.24344,0.0537 0.0751,0.021 0.19342,0.054 0.26292,0.0735 0.11866,0.0331 0.48699,0.19942 0.64555,0.2915 0.15474,0.0899 0.29463,0.20404 0.2805,0.22893 -0.008,0.0144 -0.12805,0.13995 -0.26637,0.27897 l -0.2515,0.25276 -0.0595,-0.0421 c -0.1896,-0.13433 -0.75022,-0.35653 -0.89947,-0.35653 h -0.0744 v 1.0094 1.00941 h 1.02128 c 0.56171,0 1.02128,-0.003 1.02127,-0.006 -10e-6,-0.004 -0.0163,-0.0836 -0.036,-0.1785 -0.0467,-0.22368 -0.15774,-0.50223 -0.27371,-0.68639 l -0.0922,-0.14643 0.27121,-0.27146 0.27121,-0.27147 0.0723,0.0899 c 0.0397,0.0495 0.0723,0.0969 0.0723,0.10547 0,0.008 0.0223,0.047 0.0497,0.0853 0.14787,0.20767 0.36106,0.74684 0.40209,1.01695 0.013,0.0856 0.0292,0.17975 0.0358,0.20914 l 0.0121,0.0535 0.87239,3.8e-4 c 0.861,3.8e-4 0.87362,8.5e-4 0.9669,0.0539 0.1109,0.0629 0.20142,0.20808 0.20197,0.32413 5.4e-4,0.11579 -0.0845,0.27641 -0.17628,0.33319 -0.0751,0.0464 -0.11426,0.0484 -0.97049,0.0484 -0.82928,0 -0.89305,0.004 -0.90426,0.0416 -0.007,0.0229 -0.0193,0.10569 -0.0282,0.18407 -0.0202,0.17846 -0.15372,0.58482 -0.26485,0.80588 -0.0948,0.18866 -0.31217,0.53604 -0.33536,0.53604 -0.008,0 -0.13461,-0.11913 -0.28063,-0.26473 -0.25335,-0.25262 -0.26424,-0.26755 -0.23837,-0.32657 0.0149,-0.0341 0.0331,-0.0672 0.0406,-0.0737 0.1009,-0.0893 0.33172,-0.70471 0.33191,-0.88497 1e-5,-0.01 -0.45688,-0.0153 -1.01532,-0.0119 l -1.01534,0.006 -0.006,1.01799 -0.006,1.01798 0.0656,-0.0166 c 0.036,-0.009 0.11959,-0.0254 0.18564,-0.0362 0.13736,-0.0225 0.54694,-0.19771 0.68617,-0.29351 l 0.0937,-0.0645 0.26848,0.26771 c 0.14766,0.14725 0.26847,0.27374 0.26847,0.28108 0,0.0231 -0.3852,0.26746 -0.53439,0.33906 -0.23013,0.11045 -0.57547,0.22839 -0.74503,0.25441 -0.0866,0.0134 -0.18689,0.0302 -0.2228,0.0375 l -0.0653,0.0134 -8.6e-4,0.89471 c -5.3e-4,0.69081 -0.008,0.90745 -0.0319,0.95067 -0.0171,0.0309 -0.0771,0.0869 -0.13337,0.12469 -0.12705,0.0854 -0.25772,0.0904 -0.39028,0.0149 z"
         id="Icon_AbsHome_Icon" /></g><circle
       style="fill:url(#radialGradient2524-95-9);fill-opacity:1;stroke-width:0.155524;stroke-miterlimit:3.5;paint-order:stroke markers fill"
       id="path1915-1-2"
       cx="-311.24393"
       cy="1316.2084"
       r="20.574476"
       inkscape:export-filename="..\..\..\..\..\..\00_Travasi\05_NuovoHmi\Images\button_resetReleased.png"
       inkscape:export-xdpi="96"
       inkscape:export-ydpi="96"
       transform="rotate(-26.125182)" /><text
       xml:space="preserve"
       style="font-weight:bold;font-size:8.48951px;font-family:Calibri;-inkscape-font-specification:'Calibri Bold';text-align:end;text-anchor:end;fill:#ff0000;stroke:none;stroke-width:8.35633;stroke-miterlimit:3.5;paint-order:stroke markers fill"
       id="text2598"
       transform="translate(0,-1.403165)"><textPath
         xlink:href="#path1915-1-2"
         startOffset="100%"
         id="textPath2799"><tspan
           id="tspan2596"
           style="fill:#ffffff;stroke:none;stroke-width:8.35633">EMERGENCY</tspan></textPath></text></g></svg>
