<?xml version="1.0" encoding="UTF-8" standalone="no"?>
<svg
   width="66.08374"
   height="48.255859"
   viewBox="0 0 17.484656 12.767696"
   version="1.1"
   id="svg8"
   inkscape:version="1.3.2 (091e20e, 2023-11-25, custom)"
   sodipodi:docname="Icone.svg"
   xml:space="preserve"
   xmlns:inkscape="http://www.inkscape.org/namespaces/inkscape"
   xmlns:sodipodi="http://sodipodi.sourceforge.net/DTD/sodipodi-0.dtd"
   xmlns:xlink="http://www.w3.org/1999/xlink"
   xmlns="http://www.w3.org/2000/svg"
   xmlns:svg="http://www.w3.org/2000/svg"
   xmlns:rdf="http://www.w3.org/1999/02/22-rdf-syntax-ns#"
   xmlns:cc="http://creativecommons.org/ns#"
   xmlns:dc="http://purl.org/dc/elements/1.1/"><defs
     id="defs2"><linearGradient
       inkscape:collect="always"
       id="linearGradient2520"><stop
         style="stop-color:#999999;stop-opacity:1;"
         offset="0.65135133"
         id="stop2516" /><stop
         style="stop-color:#262626;stop-opacity:1;"
         offset="1"
         id="stop2518" /></linearGradient><radialGradient
       inkscape:collect="always"
       xlink:href="#linearGradient2520"
       id="radialGradient2524-95-9"
       cx="115.92648"
       cy="1235.3082"
       fx="115.92648"
       fy="1235.3082"
       r="26.458334"
       gradientUnits="userSpaceOnUse"
       gradientTransform="matrix(0.77761798,0,0,0.77761798,-243.08526,-653.59148)" /></defs><sodipodi:namedview
     id="base"
     pagecolor="#ffffff"
     bordercolor="#666666"
     borderopacity="1.0"
     inkscape:pageopacity="0"
     inkscape:pageshadow="2"
     inkscape:zoom="3.9999998"
     inkscape:cx="1150.7501"
     inkscape:cy="4249.5002"
     inkscape:document-units="px"
     inkscape:current-layer="g16528-8-3"
     inkscape:document-rotation="0"
     showgrid="false"
     units="px"
     showborder="false"
     inkscape:pagecheckerboard="true"
     inkscape:snap-global="false"
     inkscape:window-width="1920"
     inkscape:window-height="1138"
     inkscape:window-x="-6"
     inkscape:window-y="-6"
     inkscape:window-maximized="1"
     inkscape:snap-bbox="true"
     inkscape:snap-object-midpoints="true"
     inkscape:bbox-nodes="false"
     inkscape:snap-smooth-nodes="true"
     inkscape:object-paths="true"
     inkscape:snap-intersection-paths="true"
     inkscape:snap-bbox-midpoints="true"
     inkscape:snap-bbox-edge-midpoints="true"
     inkscape:bbox-paths="true"
     inkscape:snap-midpoints="true"
     inkscape:snap-center="true"
     inkscape:snap-nodes="false"
     inkscape:showpageshadow="2"
     inkscape:deskcolor="#ffffff"><inkscape:page
       x="5.3206524e-09"
       y="3.0953823e-05"
       width="17.484655"
       height="12.767696"
       id="page1"
       margin="0"
       bleed="0" /></sodipodi:namedview><metadata
     id="metadata5"><rdf:RDF><cc:Work
         rdf:about=""><dc:format>image/svg+xml</dc:format><dc:type
           rdf:resource="http://purl.org/dc/dcmitype/StillImage" /></cc:Work></rdf:RDF></metadata><circle
     style="fill:url(#radialGradient2524-95-9);fill-opacity:1;stroke-width:0.155524;stroke-miterlimit:3.5;paint-order:stroke markers fill"
     id="path1915-1-2"
     cx="-151.92036"
     cy="307.87939"
     r="20.574476"
     inkscape:export-filename="..\..\..\..\..\..\00_Travasi\05_NuovoHmi\Images\button_resetReleased.png"
     inkscape:export-xdpi="96"
     inkscape:export-ydpi="96"
     transform="rotate(-26.125182)" /><text
     xml:space="preserve"
     style="font-weight:bold;font-size:8.48951px;font-family:Calibri;-inkscape-font-specification:'Calibri Bold';text-align:end;text-anchor:end;fill:#ff0000;stroke:none;stroke-width:8.35633;stroke-miterlimit:3.5;paint-order:stroke markers fill"
     id="text2598"
     transform="translate(-300.95521,-976.87092)"><textPath
       xlink:href="#path1915-1-2"
       startOffset="100%"
       id="textPath2799"><tspan
         id="tspan2596"
         style="fill:#ffffff;stroke:none;stroke-width:8.35633">EMERGENCY</tspan></textPath></text><path
     id="icon_ACMotor"
     style="display:inline;fill:#ffffff;fill-opacity:1;stroke:none;stroke-width:1.0639;stroke-miterlimit:4;stroke-dasharray:8.51119, 2.12779, 1.0639, 2.12779;stroke-dashoffset:0"
     d="m 8.0270723,0.00224531 c -0.10693,0.01 -0.21619,0.0482 -0.36968,0.11964 -0.30199,0.14029 -0.41071,0.27384 -0.52031,0.63746 -0.0961,0.31896999 -0.0229,0.62908999 0.21415,0.90168999 l 0.17344,0.1992 -0.1653,0.0562 c -0.0912,0.031 -0.21324,0.13116 -0.27114,0.22197 l -0.10586,0.16423 -1.82882,0.003 -1.82963,10e-4 v 4.22797 4.2279997 l 0.11889,0.0171 c 0.1064,0.0157 0.11806,0.0455 0.11806,0.30489 0,0.28058 -0.006,0.29123 -0.19216,0.3789 -0.29715,0.13973 -0.41283,0.32337 -0.41283,0.65208 0,0.25072 0.0192,0.29974 0.18565,0.4659 l 0.18565,0.18619 h 4.47678 c 3.2379197,0 4.5076097,-0.017 4.5907797,-0.0601 0.2995,-0.15546 0.44837,-0.47945 0.35827,-0.77974 -0.0563,-0.18757 -0.31708,-0.47484 -0.43155,-0.47484 -0.0267,0 -0.048,-0.16488 -0.048,-0.36669 0,-0.35674 0.003,-0.36823 0.14413,-0.40248 0.34299,-0.0835 0.77369,-0.47417 0.98362,-0.8935497 l 0.13516,-0.27078 v -2.94738 -2.9482 l -0.12784,-0.27726 c -0.21671,-0.47074 -0.63605,-0.83753 -1.11553,-0.9765 -0.14578,-0.0421 -0.71433,-0.0635 -1.73843,-0.0635 H 9.0327223 l -0.0594,-0.15685 c -0.0347,-0.0918 -0.11974,-0.1801 -0.20438,-0.21222 l -0.14494,-0.0552 0.15552,-0.16828 c 0.18901,-0.20517 0.33552,-0.51669 0.33385,-0.70982 -0.003,-0.37002999 -0.3629,-0.83989999 -0.72713,-0.94885999 -0.14698,-0.0441 -0.25216,-0.0626 -0.35908,-0.0529 z m 0.10097,0.30735 c 0.24436,0 0.30452,0.0219 0.44866,0.16261 0.29149,0.2846 0.29694,0.79541999 0.0114,1.06186999 -0.21763,0.2031 -0.63384,0.24966 -0.87533,0.0976 -0.24642,-0.15515 -0.33547,-0.31472 -0.33547,-0.60087 0,-0.48974999 0.24124,-0.72117999 0.75074,-0.72117999 z m -5.9457,1.99689999 c -0.39746,0 -0.71857,0.0291 -0.9079,0.0821 -0.57169995,0.16022 -1.01160995,0.60878 -1.18635995,1.20904 -0.11507,0.39474 -0.11845,5.47386 -0.004,5.90291 0.15191,0.5699397 0.52255,0.9701497 1.10819995,1.1960397 0.0887,0.0343 0.47528,0.0635 0.88184,0.0667 l 0.72387,0.006 v -4.2315697 -4.23205 z m 11.7749597,0.78706 v 3.4149 3.41573 l 0.22392,-0.0788 c 0.28585,-0.10041 0.44253,-0.26964 0.5138,-0.55615 0.0376,-0.15183 0.0517,-1.12093 0.0415,-2.90836 -0.0139,-2.43837 -0.0237,-2.69746 -0.1083,-2.8669 -0.0967,-0.19381 -0.27853,-0.32737 -0.52601,-0.38621 z m -1.63177,0.31628 v 0.23741 0.23661 h -3.9906597 -3.99149 l 0.0114,-0.22359 0.0105,-0.22359 3.98008,-0.0126 z m 0,0.99927 v 0.23661 0.23661 h -3.9906597 -3.99149 l 0.0114,-0.22281 0.0105,-0.22359 3.98008,-0.0142 z m -7.9748197,1.07814 h 3.97438 3.9743897 l 0.0163,0.22358 0.0163,0.22278 H 8.3544323 c -2.1876,0 -3.97963,-0.006 -3.98171,-0.0126 -0.003,-0.008 -0.008,-0.10799 -0.0131,-0.22359 z m 10.9281297,0.026 c -0.27575,0 -0.32081,0.13608 -0.32081,0.96024 0,0.70138 0.004,0.73081 0.12865,0.85534 0.14846,0.14822 0.15451,0.1501 0.3086,0.0691 0.14644,-0.0769 0.19214,-0.14663 0.19298,-0.29434 8.3e-4,-0.11781 0.004,-0.11866 0.8737,-0.11866 0.68584,0 0.88867,-0.0157 0.94779,-0.0747 0.0526,-0.0525 0.0749,-0.20176 0.0749,-0.49678 0,-0.58405 -0.001,-0.58419 -1.0512,-0.58462 l -0.81752,-8.2e-4 -0.0896,-0.15688 c -0.0682,-0.11978 -0.12779,-0.15772 -0.24753,-0.15772 z m -10.9387197,1.10415 h 3.99311 3.9922997 v 0.20977 0.21058 H 8.3511423 c -2.18593,0 -3.97597,-0.006 -3.97764,-0.0126 -0.002,-0.008 -0.01,-0.10209 -0.0179,-0.2106 z m 7.9854097,1.10334 v 0.2366 0.23661 h -3.9906597 -3.99149 l 0.0114,-0.22277 0.0105,-0.22361 3.98008,-0.0142 z m 0,1.10334 v 0.23742 0.23661 h -3.9906597 -3.99149 l 0.0114,-0.22359 0.0105,-0.22362 3.98008,-0.0126 z" /></svg>
