<?xml version="1.0" encoding="UTF-8" standalone="no"?>
<svg
   width="54.432129"
   height="54.809326"
   viewBox="0 0 14.401834 14.501635"
   version="1.1"
   id="svg8"
   inkscape:version="1.3.2 (091e20e, 2023-11-25, custom)"
   sodipodi:docname="Icone.svg"
   xml:space="preserve"
   xmlns:inkscape="http://www.inkscape.org/namespaces/inkscape"
   xmlns:sodipodi="http://sodipodi.sourceforge.net/DTD/sodipodi-0.dtd"
   xmlns:xlink="http://www.w3.org/1999/xlink"
   xmlns="http://www.w3.org/2000/svg"
   xmlns:svg="http://www.w3.org/2000/svg"
   xmlns:rdf="http://www.w3.org/1999/02/22-rdf-syntax-ns#"
   xmlns:cc="http://creativecommons.org/ns#"
   xmlns:dc="http://purl.org/dc/elements/1.1/"><defs
     id="defs2"><linearGradient
       inkscape:collect="always"
       id="linearGradient2520"><stop
         style="stop-color:#999999;stop-opacity:1;"
         offset="0.65135133"
         id="stop2516" /><stop
         style="stop-color:#262626;stop-opacity:1;"
         offset="1"
         id="stop2518" /></linearGradient><radialGradient
       inkscape:collect="always"
       xlink:href="#linearGradient2520"
       id="radialGradient2524-95-9"
       cx="115.92648"
       cy="1235.3082"
       fx="115.92648"
       fy="1235.3082"
       r="26.458334"
       gradientUnits="userSpaceOnUse"
       gradientTransform="matrix(0.77761798,0,0,0.77761798,-402.40885,354.73752)" /></defs><sodipodi:namedview
     id="base"
     pagecolor="#ffffff"
     bordercolor="#666666"
     borderopacity="1.0"
     inkscape:pageopacity="0"
     inkscape:pageshadow="2"
     inkscape:zoom="3.9999998"
     inkscape:cx="1150.7501"
     inkscape:cy="4249.5002"
     inkscape:document-units="px"
     inkscape:current-layer="g16528-8-3"
     inkscape:document-rotation="0"
     showgrid="false"
     units="px"
     showborder="false"
     inkscape:pagecheckerboard="true"
     inkscape:snap-global="false"
     inkscape:window-width="1920"
     inkscape:window-height="1138"
     inkscape:window-x="-6"
     inkscape:window-y="-6"
     inkscape:window-maximized="1"
     inkscape:snap-bbox="true"
     inkscape:snap-object-midpoints="true"
     inkscape:bbox-nodes="false"
     inkscape:snap-smooth-nodes="true"
     inkscape:object-paths="true"
     inkscape:snap-intersection-paths="true"
     inkscape:snap-bbox-midpoints="true"
     inkscape:snap-bbox-edge-midpoints="true"
     inkscape:bbox-paths="true"
     inkscape:snap-midpoints="true"
     inkscape:snap-center="true"
     inkscape:snap-nodes="false"
     inkscape:showpageshadow="2"
     inkscape:deskcolor="#ffffff"><inkscape:page
       x="-4.6696442e-07"
       y="-3.1383726e-05"
       width="14.401834"
       height="14.501635"
       id="page1"
       margin="0"
       bleed="0" /></sodipodi:namedview><metadata
     id="metadata5"><rdf:RDF><cc:Work
         rdf:about=""><dc:format>image/svg+xml</dc:format><dc:type
           rdf:resource="http://purl.org/dc/dcmitype/StillImage" /></cc:Work></rdf:RDF></metadata><g
     inkscape:groupmode="layer"
     id="layer2"
     inkscape:label="Siemens 22"
     style="display:inline"
     transform="translate(-278.3339,-974.60081)"><path
       id="icon_RobotMotor"
       style="display:inline;fill:#ffffff;fill-opacity:1;stroke:none;stroke-width:0.0802116;stroke-miterlimit:4;stroke-dasharray:0.641693, 0.160423, 0.0802116, 0.160423;stroke-dashoffset:0"
       d="m 281.62747,989.09977 c -0.20509,-0.0311 -0.52854,-0.22 -1.65254,-0.89466 -1.60042,-0.9606 -1.64105,-0.99275 -1.64105,-1.29238 0,-0.19595 0.11813,-0.38028 0.30378,-0.47497 0.16493,-0.0844 0.27978,-0.0847 0.4635,-10e-4 0.12344,0.0561 1.69304,0.98264 2.03358,1.20054 0.0649,0.0416 0.18258,0.11082 0.26202,0.15455 l 0.1451,0.0804 0.0574,-0.0719 c 0.0319,-0.0398 0.30304,-0.37519 0.60234,-0.74538 0.2993,-0.37018 0.56237,-0.70701 0.5846,-0.74848 0.0274,-0.0515 0.0367,-0.22819 0.0292,-0.55435 l -0.0105,-0.47812 -0.60757,-0.75788 c -0.33408,-0.41669 -0.61663,-0.77207 -0.62844,-0.7892 -0.0178,-0.0257 -0.65139,0.3426 -2.09516,1.21615 -0.43597,0.26379 -0.61781,0.30681 -0.83932,0.20041 -0.17464,-0.0837 -0.27719,-0.23836 -0.2944,-0.44576 -0.0152,-0.18222 0.0353,-0.30112 0.17955,-0.42801 0.0371,-0.0328 0.4092,-0.26597 0.8268,-0.51778 0.41759,-0.25183 0.78119,-0.47167 0.80904,-0.48856 0.55944,-0.3394 1.21618,-0.72458 1.29656,-0.76102 0.12941,-0.0589 0.39233,-0.0423 0.5063,0.0323 0.0469,0.0308 0.28691,0.30902 0.53345,0.61801 0.24654,0.30895 0.52501,0.65405 0.61905,0.76727 l 0.17121,0.2067 0.69943,0.007 0.69943,0.01 0.14824,0.14831 c 0.0969,0.0969 0.15634,0.19009 0.17121,0.26932 l 0.0219,0.12109 h 1.45105 c 1.36922,0 1.44956,0.004 1.42497,0.0596 -0.0143,0.0325 -0.0629,0.19512 -0.10753,0.36224 -0.14152,0.52901 -0.11039,1.21364 0.0752,1.65775 l 0.048,0.11265 -1.43644,0.01 -1.43645,0.007 -0.0658,0.17757 c -0.0439,0.11785 -0.1072,0.20876 -0.18791,0.27037 l -0.12108,0.0928 -0.70152,0.016 -0.70256,0.016 -0.52196,0.65768 c -0.62537,0.78789 -0.76693,0.93659 -0.92179,0.96565 -0.0673,0.0127 -0.12266,0.0201 -0.19105,0.01 z m 9.0091,-1.20784 c -1.18299,-4.7e-4 -2.11187,-0.92335 -2.11187,-2.09724 0,-0.98993 0.68792,-1.8556 1.63688,-2.06071 0.34319,-0.0741 0.56132,-0.0764 0.88734,-0.01 1.35598,0.27446 2.07401,1.73946 1.47194,3.00128 -0.10096,0.21159 -0.18663,0.32854 -0.39982,0.54075 -0.43127,0.42938 -0.89987,0.6266 -1.48447,0.62637 z m 0,-0.86645 c 0.28167,8.4e-4 0.32602,-0.007 0.52823,-0.11068 0.37769,-0.19172 0.62782,-0.52162 0.70257,-0.92596 0.0952,-0.51504 -0.21194,-1.0931 -0.7057,-1.33103 -0.15644,-0.0754 -0.24482,-0.0945 -0.49378,-0.10224 -0.25873,-0.007 -0.33313,10e-4 -0.499,0.0721 -0.32347,0.13571 -0.50096,0.30056 -0.66498,0.61798 -0.15165,0.29376 -0.14985,0.79944 0.004,1.10136 0.1153,0.22604 0.37921,0.47696 0.61174,0.5825 0.18033,0.0819 0.2531,0.0956 0.51674,0.0962 z m -0.023,-0.66082 c -0.24129,-0.006 -0.47406,-0.16686 -0.53344,-0.4332 -0.0587,-0.26311 0.0209,-0.47186 0.23801,-0.62534 0.13411,-0.0948 0.41528,-0.11124 0.56581,-0.0333 0.13287,0.0685 0.26368,0.23227 0.31109,0.39041 0.055,0.18344 -0.005,0.37003 -0.17225,0.53762 -0.11626,0.11631 -0.26445,0.16807 -0.40922,0.16383 z m -2.13274,-2.69229 -0.15137,-0.26202 c -0.0834,-0.14442 -0.23034,-0.39982 -0.32675,-0.56685 -0.35648,-0.61757 -0.81045,-1.39129 -0.98547,-1.68072 -0.0991,-0.16382 -0.17955,-0.30291 -0.17955,-0.30901 0,-0.006 -0.14648,-0.2594 -0.3257,-0.56269 -0.17923,-0.30326 -0.40486,-0.68793 -0.50108,-0.85494 -0.35181,-0.61072 -0.88662,-1.52493 -1.01784,-1.74025 -0.0741,-0.12151 -0.14368,-0.24569 -0.15555,-0.27664 -0.0196,-0.0511 -0.15044,-0.0581 -1.42078,-0.0669 -1.35295,-0.01 -1.40284,-0.01 -1.4949,-0.0783 -0.0524,-0.0385 -0.12571,-0.12953 -0.16287,-0.20251 -0.0627,-0.12348 -0.0679,-0.20022 -0.0679,-1.09512 0,-0.82966 0.007,-0.97531 0.0553,-1.06271 0.0759,-0.13839 0.16998,-0.21672 0.32258,-0.27141 v -10e-4 c 0.10695,-0.0384 0.90101,-0.0446 4.6841,-0.0385 l 4.55571,0.007 0.13465,0.0722 c 0.0813,0.0437 0.16656,0.12727 0.21296,0.20982 0.0761,0.13557 0.0766,0.14951 0.0668,1.1316 -0.009,0.94341 -0.0134,0.99943 -0.0793,1.08779 -0.0383,0.0512 -0.11165,0.1246 -0.16287,0.16282 -0.0898,0.0671 -0.14056,0.0702 -1.42391,0.0795 -0.92454,0.006 -1.32997,0.0205 -1.32997,0.0458 0,0.0321 0.69077,1.22394 1.24854,2.15467 0.32214,0.53757 0.69098,1.1612 0.70883,1.19845 0.0339,0.0709 0.41579,0.71084 0.47708,0.79964 0.0347,0.0503 0.0626,0.099 0.0626,0.10828 0,0.01 0.089,0.16504 0.1973,0.34658 0.1083,0.18161 0.32207,0.54066 0.475,0.79758 0.15292,0.25689 0.27033,0.475 0.26098,0.48436 -0.009,0.01 -0.0827,-0.0285 -0.16287,-0.0834 -0.68421,-0.46908 -1.54402,-0.59866 -2.30603,-0.34867 -0.46605,0.15294 -0.91652,0.43417 -1.11805,0.69839 z" /><circle
       style="fill:url(#radialGradient2524-95-9);fill-opacity:1;stroke-width:0.155524;stroke-miterlimit:3.5;paint-order:stroke markers fill"
       id="path1915-1-2"
       cx="-311.24393"
       cy="1316.2084"
       r="20.574476"
       inkscape:export-filename="..\..\..\..\..\..\00_Travasi\05_NuovoHmi\Images\button_resetReleased.png"
       inkscape:export-xdpi="96"
       inkscape:export-ydpi="96"
       transform="rotate(-26.125182)" /><text
       xml:space="preserve"
       style="font-weight:bold;font-size:8.48951px;font-family:Calibri;-inkscape-font-specification:'Calibri Bold';text-align:end;text-anchor:end;fill:#ff0000;stroke:none;stroke-width:8.35633;stroke-miterlimit:3.5;paint-order:stroke markers fill"
       id="text2598"
       transform="translate(0,-1.403165)"><textPath
         xlink:href="#path1915-1-2"
         startOffset="100%"
         id="textPath2799"><tspan
           id="tspan2596"
           style="fill:#ffffff;stroke:none;stroke-width:8.35633">EMERGENCY</tspan></textPath></text></g></svg>
