<?xml version="1.0" encoding="UTF-8" standalone="no"?>
<svg
   width="56.692867"
   height="56.692627"
   viewBox="0 0 14.999988 14.999925"
   version="1.1"
   id="svg8"
   inkscape:version="1.3.2 (091e20e, 2023-11-25, custom)"
   sodipodi:docname="Icone.svg"
   xml:space="preserve"
   xmlns:inkscape="http://www.inkscape.org/namespaces/inkscape"
   xmlns:sodipodi="http://sodipodi.sourceforge.net/DTD/sodipodi-0.dtd"
   xmlns:xlink="http://www.w3.org/1999/xlink"
   xmlns="http://www.w3.org/2000/svg"
   xmlns:svg="http://www.w3.org/2000/svg"
   xmlns:rdf="http://www.w3.org/1999/02/22-rdf-syntax-ns#"
   xmlns:cc="http://creativecommons.org/ns#"
   xmlns:dc="http://purl.org/dc/elements/1.1/"><defs
     id="defs2"><linearGradient
       inkscape:collect="always"
       id="linearGradient2520"><stop
         style="stop-color:#999999;stop-opacity:1;"
         offset="0.65135133"
         id="stop2516" /><stop
         style="stop-color:#262626;stop-opacity:1;"
         offset="1"
         id="stop2518" /></linearGradient><radialGradient
       inkscape:collect="always"
       xlink:href="#linearGradient2520"
       id="radialGradient2524-95-9"
       cx="115.92648"
       cy="1235.3082"
       fx="115.92648"
       fy="1235.3082"
       r="26.458334"
       gradientUnits="userSpaceOnUse"
       gradientTransform="matrix(0.77761798,0,0,0.77761798,-402.40885,354.73752)" /></defs><sodipodi:namedview
     id="base"
     pagecolor="#ffffff"
     bordercolor="#666666"
     borderopacity="1.0"
     inkscape:pageopacity="0"
     inkscape:pageshadow="2"
     inkscape:zoom="0.99999996"
     inkscape:cx="782.00003"
     inkscape:cy="3856.0002"
     inkscape:document-units="px"
     inkscape:current-layer="layer2"
     inkscape:document-rotation="0"
     showgrid="false"
     units="px"
     showborder="false"
     inkscape:pagecheckerboard="true"
     inkscape:snap-global="false"
     inkscape:window-width="1920"
     inkscape:window-height="1138"
     inkscape:window-x="-6"
     inkscape:window-y="1193"
     inkscape:window-maximized="1"
     inkscape:snap-bbox="true"
     inkscape:snap-object-midpoints="true"
     inkscape:bbox-nodes="false"
     inkscape:snap-smooth-nodes="true"
     inkscape:object-paths="true"
     inkscape:snap-intersection-paths="true"
     inkscape:snap-bbox-midpoints="true"
     inkscape:snap-bbox-edge-midpoints="true"
     inkscape:bbox-paths="true"
     inkscape:snap-midpoints="true"
     inkscape:snap-center="true"
     inkscape:snap-nodes="false"
     inkscape:showpageshadow="2"
     inkscape:deskcolor="#ffffff"><inkscape:page
       x="3.7724521e-07"
       y="-2.9712912e-05"
       width="14.999988"
       height="14.999925"
       id="page1"
       margin="0"
       bleed="0" /></sodipodi:namedview><metadata
     id="metadata5"><rdf:RDF><cc:Work
         rdf:about=""><dc:format>image/svg+xml</dc:format><dc:type
           rdf:resource="http://purl.org/dc/dcmitype/StillImage" /></cc:Work></rdf:RDF></metadata><g
     inkscape:groupmode="layer"
     id="layer2"
     inkscape:label="Siemens 22"
     style="display:inline"
     transform="translate(-206.84109,-973.7183)"><g
       id="Icon_Brake"
       style="display:inline"
       transform="translate(21.351777,809.99236)"
       inkscape:export-filename="Images\icon_Brake.svg"
       inkscape:export-xdpi="96"
       inkscape:export-ydpi="96"><rect
         style="display:inline;fill:#f0f0f0;fill-opacity:1;stroke-width:0.0864241;stroke-linecap:round;paint-order:stroke markers fill"
         id="Icon_Brake_Background"
         width="14.999988"
         height="14.999986"
         x="185.48932"
         y="163.72589"
         rx="4.4951854"
         ry="4.4951854"
         inkscape:export-filename="Images\icon_Brake.svg"
         inkscape:export-xdpi="96"
         inkscape:export-ydpi="96" /><path
         id="Icon_Brake_Icon"
         style="display:inline;fill:#000000;fill-opacity:1;stroke:none;stroke-width:0.0119617;stroke-dasharray:none;stroke-opacity:1"
         d="m 192.98975,167.42359 c -0.14522,-2e-5 -0.29038,0.005 -0.38221,0.0153 -0.30124,0.0333 -0.57305,0.0932 -0.84909,0.18715 -0.71451,0.24302 -1.3567,0.70939 -1.8101,1.31464 -0.41813,0.55819 -0.66598,1.19098 -0.7451,1.90174 -0.0206,0.18473 -0.0206,0.58084 0,0.76556 0.0604,0.54224 0.22128,1.04475 0.48175,1.50391 0.18017,0.3176 0.47322,0.68383 0.73604,0.9197 0.41507,0.37249 0.86545,0.63672 1.37099,0.80454 0.30797,0.10222 0.65652,0.16929 0.99224,0.19062 v 1.9e-4 c 0.0289,0.001 0.14859,0.002 0.26625,0 0.23124,-0.003 0.42397,-0.0216 0.6307,-0.06 1.01269,-0.18789 1.90444,-0.77691 2.47263,-1.63317 0.11307,-0.17041 0.15481,-0.24207 0.23943,-0.41135 0.206,-0.41192 0.32923,-0.83553 0.38259,-1.31482 0.0205,-0.18399 0.0205,-0.58062 0,-0.7644 -0.0314,-0.28145 -0.0918,-0.56454 -0.1719,-0.8055 -0.27091,-0.81476 -0.79995,-1.50937 -1.50585,-1.97698 -0.17873,-0.11841 -0.25082,-0.15967 -0.44027,-0.25275 -0.40113,-0.19707 -0.82028,-0.31753 -1.28551,-0.36907 -0.0921,-0.0101 -0.23737,-0.0153 -0.38259,-0.0153 z m 3.59821,0.20876 -0.22478,0.22419 -0.22496,0.22418 0.0606,0.0663 c 0.26921,0.29489 0.45538,0.542 0.6251,0.82981 0.31227,0.52952 0.51188,1.11994 0.58306,1.72443 0.0295,0.25038 0.0373,0.62989 0.0181,0.86434 -0.0675,0.82271 -0.3419,1.57604 -0.81495,2.23744 -0.11441,0.15998 -0.20848,0.27611 -0.35422,0.43718 l -0.1173,0.12947 0.22187,0.22206 c 0.12197,0.12205 0.22431,0.22187 0.22747,0.22187 0.002,0 0.05,-0.0482 0.10413,-0.10705 0.70701,-0.7682 1.157,-1.69522 1.31251,-2.70434 0.0453,-0.29411 0.0528,-0.39894 0.0528,-0.7727 3.8e-4,-0.37438 -0.007,-0.47789 -0.0531,-0.78156 -0.15582,-1.02006 -0.62463,-1.97284 -1.35092,-2.74583 z m -7.19698,0.005 c -0.009,0 -0.2167,0.23064 -0.31062,0.34533 -0.58819,0.7185 -0.96851,1.56661 -1.10589,2.46607 -0.0459,0.30008 -0.0533,0.40786 -0.0533,0.77715 0,0.36928 0.008,0.47705 0.0533,0.77713 0.12444,0.81467 0.45375,1.59991 0.9525,2.27121 0.11032,0.14854 0.20236,0.25948 0.34458,0.41576 0.0623,0.0685 0.11592,0.12444 0.11924,0.12444 0.003,0 0.10581,-0.0999 0.22785,-0.22206 l 0.22206,-0.22226 -0.0693,-0.0757 c -0.11633,-0.12711 -0.16847,-0.18743 -0.25332,-0.29327 -0.55139,-0.68764 -0.88119,-1.50797 -0.95984,-2.38753 -0.0246,-0.27545 -0.0171,-0.6616 0.0186,-0.94655 0.11363,-0.90809 0.53019,-1.79737 1.15548,-2.46663 0.0359,-0.0385 0.0752,-0.0809 0.0873,-0.0941 l 0.0218,-0.0242 -0.22226,-0.22246 c -0.12225,-0.12233 -0.22487,-0.22244 -0.22805,-0.22244 z m 3.68154,0.62355 c 1.05335,0.0291 2.03133,0.61811 2.54402,1.58669 0.13933,0.26324 0.24771,0.58317 0.29691,0.8763 0.031,0.1849 0.0395,0.2923 0.0395,0.50201 0,0.11284 -0.005,0.24834 -0.0112,0.30116 -0.0676,0.59269 -0.27807,1.10363 -0.64422,1.56296 -0.0983,0.12326 -0.32086,0.34588 -0.44412,0.44413 -0.4473,0.35653 -0.94994,0.56852 -1.51491,0.63879 -0.13204,0.0164 -0.44977,0.0233 -0.57745,0.0126 -0.60587,-0.0509 -1.1601,-0.27169 -1.63588,-0.65154 -0.12325,-0.0984 -0.34573,-0.32068 -0.44414,-0.44393 -0.36497,-0.45716 -0.57693,-0.97139 -0.64439,-1.56296 -0.0141,-0.12379 -0.0141,-0.47854 0,-0.60232 0.0801,-0.70245 0.36739,-1.30445 0.85682,-1.79487 0.39992,-0.40073 0.89721,-0.67561 1.44236,-0.79759 0.24631,-0.0551 0.49335,-0.0781 0.73643,-0.0714 z m -0.5022,0.85199 v 1.26603 1.26602 h 0.41924 0.41904 v -1.26602 -1.26603 h -0.41904 z m 0,3.38771 v 0.41906 0.41924 h 0.41924 0.41904 v -0.41924 -0.41906 h -0.41904 z" /></g><circle
       style="fill:url(#radialGradient2524-95-9);fill-opacity:1;stroke-width:0.155524;stroke-miterlimit:3.5;paint-order:stroke markers fill"
       id="path1915-1-2"
       cx="-311.24393"
       cy="1316.2084"
       r="20.574476"
       inkscape:export-filename="..\..\..\..\..\..\00_Travasi\05_NuovoHmi\Images\button_resetReleased.png"
       inkscape:export-xdpi="96"
       inkscape:export-ydpi="96"
       transform="rotate(-26.125182)" /><text
       xml:space="preserve"
       style="font-weight:bold;font-size:8.48951px;font-family:Calibri;-inkscape-font-specification:'Calibri Bold';text-align:end;text-anchor:end;fill:#ff0000;stroke:none;stroke-width:8.35633;stroke-miterlimit:3.5;paint-order:stroke markers fill"
       id="text2598"
       transform="translate(0,-1.403165)"><textPath
         xlink:href="#path1915-1-2"
         startOffset="100%"
         id="textPath2799"><tspan
           id="tspan2596"
           style="fill:#ffffff;stroke:none;stroke-width:8.35633">EMERGENCY</tspan></textPath></text></g></svg>
