<?xml version="1.0" encoding="UTF-8" standalone="no"?>
<svg
   width="64.759155"
   height="44.717041"
   viewBox="0 0 17.134193 11.831384"
   version="1.1"
   id="svg8"
   inkscape:version="1.3.2 (091e20e, 2023-11-25, custom)"
   sodipodi:docname="Icone.svg"
   xml:space="preserve"
   xmlns:inkscape="http://www.inkscape.org/namespaces/inkscape"
   xmlns:sodipodi="http://sodipodi.sourceforge.net/DTD/sodipodi-0.dtd"
   xmlns:xlink="http://www.w3.org/1999/xlink"
   xmlns="http://www.w3.org/2000/svg"
   xmlns:svg="http://www.w3.org/2000/svg"
   xmlns:rdf="http://www.w3.org/1999/02/22-rdf-syntax-ns#"
   xmlns:cc="http://creativecommons.org/ns#"
   xmlns:dc="http://purl.org/dc/elements/1.1/"><defs
     id="defs2"><linearGradient
       inkscape:collect="always"
       id="linearGradient2520"><stop
         style="stop-color:#999999;stop-opacity:1;"
         offset="0.65135133"
         id="stop2516" /><stop
         style="stop-color:#262626;stop-opacity:1;"
         offset="1"
         id="stop2518" /></linearGradient><radialGradient
       inkscape:collect="always"
       xlink:href="#linearGradient2520"
       id="radialGradient2524-95-9"
       cx="115.92648"
       cy="1235.3082"
       fx="115.92648"
       fy="1235.3082"
       r="26.458334"
       gradientUnits="userSpaceOnUse"
       gradientTransform="matrix(0.77761798,0,0,0.77761798,-402.40885,354.73752)" /></defs><sodipodi:namedview
     id="base"
     pagecolor="#ffffff"
     bordercolor="#666666"
     borderopacity="1.0"
     inkscape:pageopacity="0"
     inkscape:pageshadow="2"
     inkscape:zoom="3.9999998"
     inkscape:cx="1150.7501"
     inkscape:cy="4249.5002"
     inkscape:document-units="px"
     inkscape:current-layer="g16528-8-3"
     inkscape:document-rotation="0"
     showgrid="false"
     units="px"
     showborder="false"
     inkscape:pagecheckerboard="true"
     inkscape:snap-global="false"
     inkscape:window-width="1920"
     inkscape:window-height="1138"
     inkscape:window-x="-6"
     inkscape:window-y="-6"
     inkscape:window-maximized="1"
     inkscape:snap-bbox="true"
     inkscape:snap-object-midpoints="true"
     inkscape:bbox-nodes="false"
     inkscape:snap-smooth-nodes="true"
     inkscape:object-paths="true"
     inkscape:snap-intersection-paths="true"
     inkscape:snap-bbox-midpoints="true"
     inkscape:snap-bbox-edge-midpoints="true"
     inkscape:bbox-paths="true"
     inkscape:snap-midpoints="true"
     inkscape:snap-center="true"
     inkscape:snap-nodes="false"
     inkscape:showpageshadow="2"
     inkscape:deskcolor="#ffffff"><inkscape:page
       x="-1.9131498e-07"
       y="2.2365959e-06"
       width="17.134193"
       height="11.831384"
       id="page1"
       margin="0"
       bleed="0" /></sodipodi:namedview><metadata
     id="metadata5"><rdf:RDF><cc:Work
         rdf:about=""><dc:format>image/svg+xml</dc:format><dc:type
           rdf:resource="http://purl.org/dc/dcmitype/StillImage" /></cc:Work></rdf:RDF></metadata><g
     inkscape:groupmode="layer"
     id="layer2"
     inkscape:label="Siemens 22"
     style="display:inline"
     transform="translate(-253.55091,-975.93589)"><path
       id="path2915-6-5"
       style="display:inline;fill:#ffffff;fill-opacity:1;stroke:none;stroke-width:2.88203;stroke-miterlimit:4;stroke-dasharray:23.0562, 5.76404, 2.88203, 5.76404;stroke-dashoffset:0"
       d="m 258.47941,975.93625 c -4.06007,-0.006 -4.20351,0.0471 -4.20351,1.53678 0,0.58028 -0.0488,0.69328 -0.36209,0.8332 l -0.36289,0.16123 0.0385,3.42306 c 0.0383,3.39747 0.0415,3.4237 0.36289,3.56193 0.28046,0.1206 0.32352,0.24529 0.32352,0.93039 0,0.79417 0.17051,1.10107 0.72026,1.29917 0.11869,0.0429 1.7057,0.0809 3.52654,0.0848 2.90049,0.006 3.65643,-0.042 6.10611,-0.39115 3.53478,-0.50358 3.46593,-0.45116 3.46593,-2.63459 v -1.47352 h -0.6132 c -0.54619,0 -0.63369,0.0471 -0.80922,0.43588 -0.22921,0.50749 -0.93422,0.97359 -1.47359,0.97437 -0.50309,7.2e-4 -1.07338,-0.46073 -1.45469,-1.1765 -0.4401,-0.8261 -0.4401,-2.46272 0,-3.28882 0.5404,-1.01443 1.23581,-1.37747 1.94904,-1.01836 0.46224,0.23276 1.10598,0.85372 1.10598,1.06697 0,0.12542 0.20906,0.18514 0.64784,0.18514 h 0.64784 v -1.47352 c 0,-2.18121 0.0876,-2.11534 -3.53125,-2.62611 -2.46971,-0.34858 -3.32656,-0.40648 -6.08409,-0.41042 z m 3.12981,0.84246 c 0.26244,-2e-5 3.69219,0.46393 4.72225,0.63878 0.44613,0.0757 0.46758,0.10847 0.46758,0.7113 v 0.63184 l -0.39594,-0.19828 c -1.14591,-0.57387 -2.24248,-0.38166 -3.15972,0.55315 -2.27727,2.32093 -0.53194,6.94576 2.38277,6.31379 0.36773,-0.0797 0.78246,-0.19287 0.921,-0.25149 0.21655,-0.0917 0.25189,-0.0252 0.25189,0.47059 0,0.67572 0.21479,0.59614 -2.71024,1.00139 -1.13448,0.15716 -2.21954,0.28621 -2.41111,0.28621 h -0.34872 v -5.07864 c 0,-4.93676 0.008,-5.07864 0.28024,-5.07864 z m 5.08435,4.25624 c -0.96701,0.004 -1.46457,0.0469 -1.56726,0.13038 -0.24601,0.2001 -0.26159,1.13846 -0.0228,1.37245 0.12834,0.1257 0.8571,0.16148 2.69371,0.13342 l 2.51739,-0.0386 0.22119,-0.38727 c 0.19907,-0.34902 0.19907,-0.4271 0,-0.77612 l -0.22119,-0.38804 -2.49456,-0.0385 c -0.42943,-0.006 -0.80411,-0.01 -1.12645,-0.007 z" /><circle
       style="fill:url(#radialGradient2524-95-9);fill-opacity:1;stroke-width:0.155524;stroke-miterlimit:3.5;paint-order:stroke markers fill"
       id="path1915-1-2"
       cx="-311.24393"
       cy="1316.2084"
       r="20.574476"
       inkscape:export-filename="..\..\..\..\..\..\00_Travasi\05_NuovoHmi\Images\button_resetReleased.png"
       inkscape:export-xdpi="96"
       inkscape:export-ydpi="96"
       transform="rotate(-26.125182)" /><text
       xml:space="preserve"
       style="font-weight:bold;font-size:8.48951px;font-family:Calibri;-inkscape-font-specification:'Calibri Bold';text-align:end;text-anchor:end;fill:#ff0000;stroke:none;stroke-width:8.35633;stroke-miterlimit:3.5;paint-order:stroke markers fill"
       id="text2598"
       transform="translate(0,-1.403165)"><textPath
         xlink:href="#path1915-1-2"
         startOffset="100%"
         id="textPath2799"><tspan
           id="tspan2596"
           style="fill:#ffffff;stroke:none;stroke-width:8.35633">EMERGENCY</tspan></textPath></text></g></svg>
