<?xml version="1.0" encoding="UTF-8" standalone="no"?>
<svg
   width="56.692856"
   height="56.692913"
   viewBox="0 0 14.999984 15"
   version="1.1"
   id="svg8"
   inkscape:version="1.2 (dc2aedaf03, 2022-05-15)"
   sodipodi:docname="Icone.svg"
   xml:space="preserve"
   xmlns:inkscape="http://www.inkscape.org/namespaces/inkscape"
   xmlns:sodipodi="http://sodipodi.sourceforge.net/DTD/sodipodi-0.dtd"
   xmlns="http://www.w3.org/2000/svg"
   xmlns:svg="http://www.w3.org/2000/svg"
   xmlns:rdf="http://www.w3.org/1999/02/22-rdf-syntax-ns#"
   xmlns:cc="http://creativecommons.org/ns#"
   xmlns:dc="http://purl.org/dc/elements/1.1/"><defs
     id="defs2" /><sodipodi:namedview
     id="base"
     pagecolor="#ebebeb"
     bordercolor="#666666"
     borderopacity="1.0"
     inkscape:pageopacity="0"
     inkscape:pageshadow="2"
     inkscape:zoom="1.9999999"
     inkscape:cx="864.50004"
     inkscape:cy="3786.0002"
     inkscape:document-units="px"
     inkscape:current-layer="layer2"
     inkscape:document-rotation="0"
     showgrid="false"
     units="px"
     showborder="false"
     inkscape:pagecheckerboard="false"
     inkscape:snap-global="false"
     inkscape:window-width="1920"
     inkscape:window-height="1017"
     inkscape:window-x="-8"
     inkscape:window-y="1192"
     inkscape:window-maximized="1"
     inkscape:snap-bbox="true"
     inkscape:snap-object-midpoints="true"
     inkscape:bbox-nodes="false"
     inkscape:snap-smooth-nodes="true"
     inkscape:object-paths="true"
     inkscape:snap-intersection-paths="true"
     inkscape:snap-bbox-midpoints="true"
     inkscape:snap-bbox-edge-midpoints="true"
     inkscape:bbox-paths="true"
     inkscape:snap-midpoints="true"
     inkscape:snap-center="true"
     inkscape:snap-nodes="false"
     inkscape:showpageshadow="2"
     inkscape:deskcolor="#ebebeb" /><metadata
     id="metadata5"><rdf:RDF><cc:Work
         rdf:about=""><dc:format>image/svg+xml</dc:format><dc:type
           rdf:resource="http://purl.org/dc/dcmitype/StillImage" /></cc:Work></rdf:RDF></metadata><g
     inkscape:groupmode="layer"
     id="layer2"
     inkscape:label="Siemens 22"
     transform="translate(-184.70214,-905.94773)"><g
       id="g7122"
       transform="translate(88.555845,1.5e-5)"
       inkscape:export-filename="..\..\..\..\..\..\..\00_Travasi\05_NuovoHmi\LineStatus.svg"
       inkscape:export-xdpi="96"
       inkscape:export-ydpi="96"><rect
         style="fill:#ffffff;fill-opacity:0.920962;stroke-width:0.0864241;stroke-linecap:round;paint-order:stroke markers fill"
         id="bkg"
         width="14.999988"
         height="14.999986"
         x="96.146286"
         y="905.94775"
         rx="4.4951854"
         ry="4.4951854" /><path
         style="display:inline;fill:#000000;fill-opacity:1;stroke:none;stroke-width:0.232467;stroke-linecap:square;stroke-miterlimit:4;stroke-dasharray:none;stroke-opacity:1"
         d="m 102.56286,916.93307 c -1.28549,-0.66147 -1.5994,-0.92543 -1.95442,-1.64341 l -0.26824,-0.54248 -0.0214,-2.25285 c -0.018,-1.89816 -0.005,-2.26913 0.0822,-2.3564 0.0619,-0.0619 0.38863,-0.13812 0.81052,-0.18926 0.38884,-0.0472 1.07182,-0.18503 1.51775,-0.30647 0.44594,-0.12143 0.87479,-0.22104 0.95301,-0.22136 0.0782,-3.1e-4 0.51672,0.0993 0.97445,0.22147 0.45773,0.12212 1.12968,0.25924 1.49323,0.30472 0.36354,0.0455 0.70261,0.11563 0.75346,0.15599 0.0733,0.0581 0.088,0.54694 0.0709,2.35478 -0.021,2.20293 -0.0274,2.29576 -0.18853,2.69587 -0.28369,0.70436 -0.7822,1.13658 -2.05007,1.77743 -0.59389,0.30018 -1.08986,0.54478 -1.10215,0.54357 -0.0123,-0.002 -0.49405,-0.24494 -1.07058,-0.5416 z m 2.11482,-0.71262 c 1.32141,-0.67698 1.66658,-1.1339 1.66945,-2.21001 l 7.8e-4,-0.58663 h -1.31546 -1.31546 v 1.64139 c 0,0.90274 0.024,1.63034 0.0534,1.61688 0.0293,-0.0135 0.4373,-0.22119 0.9066,-0.46163 z m -1.03103,-4.43208 c 0,-0.89949 -0.0156,-1.63544 -0.0346,-1.63544 -0.019,0 -0.33899,0.0791 -0.71094,0.17571 -0.37195,0.0966 -0.94832,0.21504 -1.2808,0.26311 l -0.60453,0.0874 v 1.37232 1.37233 h 1.31547 1.31547 z"
         id="icon"
         inkscape:export-filename="..\..\..\..\..\..\..\00_Travasi\05_NuovoHmi\widget_lineStatus.png"
         inkscape:export-xdpi="96"
         inkscape:export-ydpi="96" /></g></g></svg>
