<?xml version="1.0" encoding="UTF-8" standalone="no"?>
<svg
   width="429.00372"
   height="110"
   viewBox="0 0 113.50723 29.104167"
   version="1.1"
   id="svg8"
   inkscape:version="1.3.2 (091e20e, 2023-11-25, custom)"
   sodipodi:docname="Icone.svg"
   xml:space="preserve"
   xmlns:inkscape="http://www.inkscape.org/namespaces/inkscape"
   xmlns:sodipodi="http://sodipodi.sourceforge.net/DTD/sodipodi-0.dtd"
   xmlns:xlink="http://www.w3.org/1999/xlink"
   xmlns="http://www.w3.org/2000/svg"
   xmlns:svg="http://www.w3.org/2000/svg"
   xmlns:rdf="http://www.w3.org/1999/02/22-rdf-syntax-ns#"
   xmlns:cc="http://creativecommons.org/ns#"
   xmlns:dc="http://purl.org/dc/elements/1.1/"><defs
     id="defs2"><linearGradient
       inkscape:collect="always"
       id="linearGradient2520"><stop
         style="stop-color:#999999;stop-opacity:1;"
         offset="0.65135133"
         id="stop2516" /><stop
         style="stop-color:#262626;stop-opacity:1;"
         offset="1"
         id="stop2518" /></linearGradient><clipPath
       clipPathUnits="userSpaceOnUse"
       id="clipPath10942"><path
         d="m 47.25,73.43 c 0.395,15.712 13.256,28.327 29.061,28.327 v 0 c 9.649,0 18.202,-4.701 23.491,-11.935 v 0 c 0.436,-0.596 1.252,-0.763 1.891,-0.394 v 0 c 0,0 31.291,18.065 33.788,19.553 v 0 c 0.082,0.048 0.095,0.161 0.027,0.228 v 0 c -9.35,9.373 -22.283,15.168 -36.572,15.168 v 0 c -28.301,0 -51.291,-22.738 -51.686,-50.947"
         id="path10940" /></clipPath><linearGradient
       x1="0"
       y1="0"
       x2="1"
       y2="0"
       gradientUnits="userSpaceOnUse"
       gradientTransform="matrix(88.302116,0,0,-88.302116,47.250092,98.903374)"
       spreadMethod="pad"
       id="linearGradient10954"><stop
         style="stop-opacity:1;stop-color:#3f65b9"
         offset="0"
         id="stop10948" /><stop
         style="stop-opacity:1;stop-color:#68cde4"
         offset="0.73696312"
         id="stop10950" /><stop
         style="stop-opacity:1;stop-color:#68cde4"
         offset="1"
         id="stop10952" /></linearGradient><clipPath
       clipPathUnits="userSpaceOnUse"
       id="clipPath10964"><path
         d="m 98.936,20.862 c 14.289,0 27.222,5.795 36.572,15.169 v 0 c 0.068,0.067 0.055,0.18 -0.027,0.228 v 0 c -2.497,1.487 -33.788,19.553 -33.788,19.553 v 0 c -0.639,0.37 -1.455,0.202 -1.891,-0.395 v 0 C 94.513,48.184 85.96,43.483 76.311,43.483 v 0 c -15.805,0 -28.666,12.615 -29.061,28.327 v 0 C 47.645,43.6 70.635,20.862 98.936,20.862"
         id="path10962" /></clipPath><linearGradient
       x1="0"
       y1="0"
       x2="1"
       y2="0"
       gradientUnits="userSpaceOnUse"
       gradientTransform="matrix(-35.8671,-23.820135,-23.820135,35.8671,100.99358,59.682217)"
       spreadMethod="pad"
       id="linearGradient10974"><stop
         style="stop-opacity:1;stop-color:#4471c1"
         offset="0"
         id="stop10970" /><stop
         style="stop-opacity:1;stop-color:#68cde4"
         offset="1"
         id="stop10972" /></linearGradient><clipPath
       clipPathUnits="userSpaceOnUse"
       id="clipPath10984"><path
         d="M 72.68,145.366 C 32.538,145.366 0,112.823 0,72.68 v 0 C 0,32.543 32.538,0.001 72.68,0.001 v 0 c 26.84,0 50.281,14.548 62.865,36.189 v 0 C 126.192,26.8 113.243,20.99 98.936,20.99 v 0 c -28.301,0 -51.291,22.737 -51.686,50.942 v 0 c -0.01,0.246 -0.01,0.498 -0.01,0.748 v 0 c 0,0.252 0,0.504 0.01,0.75 v 0 c 0.395,28.209 23.385,50.947 51.686,50.947 v 0 c 14.307,0 27.256,-5.81 36.609,-15.204 v 0 C 122.961,130.818 99.52,145.366 72.68,145.366 Z"
         id="path10982" /></clipPath><linearGradient
       x1="0"
       y1="0"
       x2="1"
       y2="0"
       gradientUnits="userSpaceOnUse"
       gradientTransform="matrix(123.98003,71.579903,71.579903,-123.98003,11.100759,37.130627)"
       spreadMethod="pad"
       id="linearGradient10996"><stop
         style="stop-opacity:1;stop-color:#ef312d"
         offset="0"
         id="stop10990" /><stop
         style="stop-opacity:1;stop-color:#fad218"
         offset="0.86249278"
         id="stop10992" /><stop
         style="stop-opacity:1;stop-color:#fad218"
         offset="1"
         id="stop10994" /></linearGradient><clipPath
       clipPathUnits="userSpaceOnUse"
       id="clipPath11006"><path
         d="M 0,145.366 H 566.929 V 0 H 0 Z"
         id="path11004" /></clipPath><radialGradient
       inkscape:collect="always"
       xlink:href="#linearGradient2520"
       id="radialGradient2524-95-9"
       cx="115.92648"
       cy="1235.3082"
       fx="115.92648"
       fy="1235.3082"
       r="26.458334"
       gradientUnits="userSpaceOnUse"
       gradientTransform="matrix(0.77761798,0,0,0.77761798,-88.814305,-783.956)" /></defs><sodipodi:namedview
     id="base"
     pagecolor="#ffffff"
     bordercolor="#666666"
     borderopacity="1.0"
     inkscape:pageopacity="0"
     inkscape:pageshadow="2"
     inkscape:zoom="0.70710675"
     inkscape:cx="336.58284"
     inkscape:cy="5433.4088"
     inkscape:document-units="px"
     inkscape:current-layer="svg8"
     inkscape:document-rotation="0"
     showgrid="false"
     units="px"
     showborder="false"
     inkscape:pagecheckerboard="true"
     inkscape:snap-global="false"
     inkscape:window-width="1920"
     inkscape:window-height="1138"
     inkscape:window-x="-6"
     inkscape:window-y="-6"
     inkscape:window-maximized="1"
     inkscape:snap-bbox="true"
     inkscape:snap-object-midpoints="true"
     inkscape:bbox-nodes="false"
     inkscape:snap-smooth-nodes="true"
     inkscape:object-paths="true"
     inkscape:snap-intersection-paths="true"
     inkscape:snap-bbox-midpoints="true"
     inkscape:snap-bbox-edge-midpoints="true"
     inkscape:bbox-paths="true"
     inkscape:snap-midpoints="true"
     inkscape:snap-center="true"
     inkscape:snap-nodes="false"
     inkscape:showpageshadow="2"
     inkscape:deskcolor="#ffffff"><inkscape:page
       x="-4.4246886e-09"
       y="1.2053367e-05"
       width="113.50723"
       height="29.104168"
       id="page1"
       margin="0"
       bleed="0" /></sodipodi:namedview><metadata
     id="metadata5"><rdf:RDF><cc:Work
         rdf:about=""><dc:format>image/svg+xml</dc:format><dc:type
           rdf:resource="http://purl.org/dc/dcmitype/StillImage" /></cc:Work></rdf:RDF></metadata><circle
     style="fill:url(#radialGradient2524-95-9);fill-opacity:1;stroke-width:0.155524;stroke-miterlimit:3.5;paint-order:stroke markers fill"
     id="path1915-1-2"
     cx="2.3505986"
     cy="177.51488"
     r="20.574476"
     inkscape:export-filename="..\..\..\..\..\..\00_Travasi\05_NuovoHmi\Images\button_resetReleased.png"
     inkscape:export-xdpi="96"
     inkscape:export-ydpi="96"
     transform="rotate(-26.125182)" /><text
     xml:space="preserve"
     style="font-weight:bold;font-size:8.48951px;font-family:Calibri;-inkscape-font-specification:'Calibri Bold';text-align:end;text-anchor:end;fill:#ff0000;stroke:none;stroke-width:8.35633;stroke-miterlimit:3.5;paint-order:stroke markers fill"
     id="text2598"
     transform="translate(-219.84939,-1161.8474)"><textPath
       xlink:href="#path1915-1-2"
       startOffset="100%"
       id="textPath2799"><tspan
         id="tspan2596"
         style="fill:#ffffff;stroke:none;stroke-width:8.35633">EMERGENCY</tspan></textPath></text><g
     id="g11119"
     transform="matrix(0.56753689,0,0,0.56753689,-363.22355,8.4320286e-6)"
     style="display:inline"
     inkscape:export-filename="..\..\..\..\_Travasi\05_NuovoHMI\05_Grafica\Images\logo_completoDark.svg"
     inkscape:export-xdpi="96"
     inkscape:export-ydpi="96"><g
       id="g10936"
       transform="matrix(0.35277776,0,0,-0.35277778,639.99988,51.281895)"><g
         id="g10938"
         clip-path="url(#clipPath10942)"><g
           id="g10944"><g
             id="g10946"><path
               d="m 47.25,73.43 c 0.395,15.712 13.256,28.327 29.061,28.327 v 0 c 9.649,0 18.202,-4.701 23.491,-11.935 v 0 c 0.436,-0.596 1.252,-0.763 1.891,-0.394 v 0 c 0,0 31.291,18.065 33.788,19.553 v 0 c 0.082,0.048 0.095,0.161 0.027,0.228 v 0 c -9.35,9.373 -22.283,15.168 -36.572,15.168 v 0 c -28.301,0 -51.291,-22.738 -51.686,-50.947"
               style="fill:url(#linearGradient10954);stroke:none"
               id="path10956" /></g></g></g></g><g
       id="g10958"
       transform="matrix(0.35277776,0,0,-0.35277778,639.99988,51.281895)"><g
         id="g10960"
         clip-path="url(#clipPath10964)"><g
           id="g10966"><g
             id="g10968"><path
               d="m 98.936,20.862 c 14.289,0 27.222,5.795 36.572,15.169 v 0 c 0.068,0.067 0.055,0.18 -0.027,0.228 v 0 c -2.497,1.487 -33.788,19.553 -33.788,19.553 v 0 c -0.639,0.37 -1.455,0.202 -1.891,-0.395 v 0 C 94.513,48.184 85.96,43.483 76.311,43.483 v 0 c -15.805,0 -28.666,12.615 -29.061,28.327 v 0 C 47.645,43.6 70.635,20.862 98.936,20.862"
               style="fill:url(#linearGradient10974);stroke:none"
               id="path10976" /></g></g></g></g><g
       id="g10978"
       transform="matrix(0.35277776,0,0,-0.35277778,639.99988,51.281895)"><g
         id="g10980"
         clip-path="url(#clipPath10984)"><g
           id="g10986"><g
             id="g10988"><path
               d="M 72.68,145.366 C 32.538,145.366 0,112.823 0,72.68 v 0 C 0,32.543 32.538,0.001 72.68,0.001 v 0 c 26.84,0 50.281,14.548 62.865,36.189 v 0 C 126.192,26.8 113.243,20.99 98.936,20.99 v 0 c -28.301,0 -51.291,22.737 -51.686,50.942 v 0 c -0.01,0.246 -0.01,0.498 -0.01,0.748 v 0 c 0,0.252 0,0.504 0.01,0.75 v 0 c 0.395,28.209 23.385,50.947 51.686,50.947 v 0 c 14.307,0 27.256,-5.81 36.609,-15.204 v 0 C 122.961,130.818 99.52,145.366 72.68,145.366 Z"
               style="fill:url(#linearGradient10996);stroke:none"
               id="path10998" /></g></g></g></g><g
       id="g11000"
       transform="matrix(0.35277776,0,0,-0.35277778,639.99988,51.281895)"><g
         id="g11002"
         clip-path="url(#clipPath11006)"><g
           id="g11008"
           transform="translate(215.7759,89.6417)"><path
             d="m 0,0 c -4.608,3.04 -9.586,4.608 -15.114,4.608 -11.243,0 -18.707,-7.742 -18.707,-20.275 0,-12.717 7.281,-20.733 18.892,-20.733 5.898,0 11.519,2.212 15.758,5.161 l 2.12,-10.321 c -4.608,-2.764 -11.796,-4.518 -18.339,-4.518 -17.693,0 -29.765,11.153 -29.765,30.044 0,18.43 12.072,30.317 30.041,30.317 6.726,0 13.64,-1.75 18.615,-4.514 z"
             style="fill:#616364;fill-opacity:1;fill-rule:nonzero;stroke:none"
             id="path11010" /></g><g
           id="g11012"
           transform="translate(249.7075,91.922)"><path
             d="M 0,0 -8.836,-25.211 H 8.747 Z M 27.91,-48.375 H 16.468 l -4.839,13.77 h -23.442 l -4.744,-13.77 H -28.001 L -6.79,9.767 H 6.979 Z"
             style="fill:#616364;fill-opacity:1;fill-rule:nonzero;stroke:none"
             id="path11014" /></g><g
           id="g11016"
           transform="translate(308.501,43.5475)"><path
             d="m 0,0 h -13.767 l -20.651,58.141 h 11.721 L -6.79,11.442 9.117,58.141 h 11.721 z"
             style="fill:#616364;fill-opacity:1;fill-rule:nonzero;stroke:none"
             id="path11018" /></g><g
           id="g11020"
           transform="translate(353.8984,91.922)"><path
             d="M 0,0 -8.836,-25.211 H 8.747 Z M 27.91,-48.375 H 16.467 l -4.838,13.77 h -23.442 l -4.744,-13.77 H -28.001 L -6.79,9.767 H 6.979 Z"
             style="fill:#616364;fill-opacity:1;fill-rule:nonzero;stroke:none"
             id="path11022" /></g><g
           id="g11024"
           transform="translate(428.7861,101.6886)"><path
             d="M 0,0 H 10.789 V -58.698 H -1.302 l -27.815,42.791 V -58.141 H -39.91 V 0 h 12.373 L 0,-42.326 Z"
             style="fill:#616364;fill-opacity:1;fill-rule:nonzero;stroke:none"
             id="path11026" /></g><g
           id="g11028"
           transform="translate(492.8809,101.6886)"><path
             d="M 0,0 H 10.79 V -58.698 H -1.302 l -27.815,42.791 V -58.141 H -39.909 V 0 h 12.373 L 0,-42.326 Z"
             style="fill:#616364;fill-opacity:1;fill-rule:nonzero;stroke:none"
             id="path11030" /></g><g
           id="g11032"
           transform="translate(539.0195,91.922)"><path
             d="M 0,0 -8.836,-25.211 H 8.747 Z M 27.909,-48.375 H 16.468 l -4.839,13.77 h -23.442 l -4.744,-13.77 H -27.999 L -6.79,9.767 H 6.977 Z"
             style="fill:#616364;fill-opacity:1;fill-rule:nonzero;stroke:none"
             id="path11034" /></g></g></g></g></svg>
