<?xml version="1.0" encoding="UTF-8"?>
<svg xmlns="http://www.w3.org/2000/svg" id="Layer_1" data-name="Layer 1" viewBox="0 0 24 24">
  <path d="m1.513,13c-.828-.038-1.538-.742-1.5-1.57C.313,5.021,5.579,0,12,0c2.485,0,4.883.775,6.894,2.189l1.393-1.393c.632-.632,1.713-.184,1.713.71v4.491c0,.554-.449,1.004-1.004,1.004h-4.49c-.894,0-1.342-1.081-.71-1.714l.939-.939c-1.412-.875-3.047-1.348-4.735-1.348C7.184,3,3.235,6.765,3.01,11.57c-.038.804-.701,1.43-1.498,1.43Zm21.046-1.998c-.855-.031-1.53.601-1.568,1.428-.226,4.806-4.174,8.57-8.99,8.57-1.687,0-3.322-.473-4.735-1.348l.939-.939c.632-.632.184-1.714-.71-1.714H3.004c-.554,0-1.004.449-1.004,1.004v4.491c0,.894,1.081,1.342,1.713.71l1.393-1.393c2.01,1.414,4.408,2.189,6.893,2.189,6.421,0,11.687-5.021,11.986-11.43.039-.828-.601-1.53-1.428-1.568Zm-5.559-1.002v4c0,1.105-.895,2-2,2h-6c-1.105,0-2-.895-2-2v-4c0-1.105.895-2,2-2h6c1.105,0,2,.895,2,2Zm-3.5,1c0-.552-.448-1-1-1h-1c-.552,0-1,.448-1,1s.448,1,1,1h1c.552,0,1-.448,1-1Z"/>
</svg>
