<svg version="1.2" baseProfile="tiny" id="EdgeSVG_VLcVe" x="0px" y="0px" width="98.046px" height="98.045px" viewBox="0 0 98.046 98.045" xmlns:xlink="http://www.w3.org/1999/xlink" xmlns="http://www.w3.org/2000/svg">
  <linearGradient id="SVGID_1_" gradientUnits="userSpaceOnUse" x1="49.0225" y1="2" x2="49.0225" y2="96.0449">
    <stop offset="0" style="stop-color:#FFFFFF;stop-opacity:0.25"/>
    <stop offset="1" style="stop-color:#000000;stop-opacity:0.45"/>
  </linearGradient>
  <path fill="url(#SVGID_1_)" d="M49.023,2C23.053,2,2.001,23.049,2.001,49.018c0,25.979,21.052,47.027,47.022,47.027&#xD;&#xA;&#x9;&#x9;c25.97,0,47.021-21.049,47.021-47.027C96.044,23.049,74.993,2,49.023,2z M49.023,94.225c-24.974,0-45.212-20.234-45.212-45.207&#xD;&#xA;&#x9;&#x9;c0-24.963,20.238-45.205,45.212-45.205s45.21,20.242,45.21,45.205C94.233,73.99,73.997,94.225,49.023,94.225z"/>
  <linearGradient id="SVGID_2_" gradientUnits="userSpaceOnUse" x1="49.0225" y1="3.8125" x2="49.0225" y2="94.2246">
    <stop offset="0" style="stop-color:#FFFFFF;stop-opacity:0.1"/>
    <stop offset="1" style="stop-color:#000000;stop-opacity:0.2"/>
  </linearGradient>
  <path fill="url(#SVGID_2_)" d="M49.023,3.813c-24.974,0-45.212,20.242-45.212,45.205c0,24.973,20.238,45.207,45.212,45.207&#xD;&#xA;&#x9;&#x9;s45.21-20.234,45.21-45.207C94.233,24.055,73.997,3.813,49.023,3.813z M49.023,80.258c-17.257,0-31.243-13.986-31.243-31.24&#xD;&#xA;&#x9;&#x9;s13.986-31.24,31.243-31.24c17.255,0,31.241,13.986,31.241,31.24S66.278,80.258,49.023,80.258z"/>
  <linearGradient id="SVGID_3_" gradientUnits="userSpaceOnUse" x1="49.0225" y1="80.2578" x2="49.0225" y2="17.7773">
    <stop offset="0" style="stop-color:#FFFFFF;stop-opacity:0.2"/>
    <stop offset="1" style="stop-color:#000000;stop-opacity:0.3"/>
  </linearGradient>
  <path fill="url(#SVGID_3_)" d="M49.023,17.777c-17.257,0-31.243,13.986-31.243,31.24s13.986,31.24,31.243,31.24&#xD;&#xA;&#x9;&#x9;c17.255,0,31.241-13.986,31.241-31.24S66.278,17.777,49.023,17.777z M49.023,78.909c-16.505,0-29.884-13.38-29.884-29.892&#xD;&#xA;&#x9;&#x9;c0-16.504,13.379-29.882,29.884-29.882c16.503,0,29.884,13.378,29.884,29.882C78.907,65.529,65.526,78.909,49.023,78.909z"/>
  <linearGradient id="SVGID_4_" gradientUnits="userSpaceOnUse" x1="19.1396" y1="49.0225" x2="78.9072" y2="49.0225">
    <stop offset="0" style="stop-color:#000000;stop-opacity:0.8"/>
    <stop offset="0.0422" style="stop-color:#000000;stop-opacity:0.8"/>
    <stop offset="1" style="stop-color:#000000;stop-opacity:0.8"/>
  </linearGradient>
  <path fill="url(#SVGID_4_)" d="M49.023,19.136c-16.505,0-29.884,13.378-29.884,29.882c0,16.512,13.379,29.892,29.884,29.892&#xD;&#xA;&#x9;&#x9;c16.503,0,29.884-13.38,29.884-29.892C78.907,32.514,65.526,19.136,49.023,19.136z M49.023,77.975&#xD;&#xA;&#x9;&#x9;c-15.997,0-28.961-12.961-28.961-28.957c0-15.986,12.964-28.957,28.961-28.957s28.96,12.971,28.96,28.957&#xD;&#xA;&#x9;&#x9;C77.983,65.014,65.021,77.975,49.023,77.975z"/>
</svg>