<svg version="1.2" baseProfile="tiny" id="EdgeSVG_VLcVe" x="0px" y="0px" width="98.046px" height="98.045px" viewBox="0 0 98.046 98.045" xmlns:xlink="http://www.w3.org/1999/xlink" xmlns="http://www.w3.org/2000/svg">
  <linearGradient id="SVGID_7_" gradientUnits="userSpaceOnUse" x1="49.0215" y1="20.2471" x2="49.0215" y2="77.7949">
    <stop offset="0" style="stop-color:#FFFFFF;stop-opacity:0.25"/>
    <stop offset="0.2567" style="stop-color:#C1C1C1;stop-opacity:0.2757"/>
    <stop offset="0.847" style="stop-color:#292929;stop-opacity:0.3347"/>
    <stop offset="1" style="stop-color:#000000;stop-opacity:0.35"/>
  </linearGradient>
  <path fill="url(#SVGID_7_)" d="M49.022,20.247c-15.893,0-28.775,12.881-28.775,28.772c0,15.893,12.883,28.775,28.775,28.775&#xD;&#xA;&#x9;&#x9;c15.891,0,28.773-12.883,28.773-28.775C77.796,33.128,64.913,20.247,49.022,20.247z M49.023,75.404&#xD;&#xA;&#x9;&#x9;c-14.547,0-26.386-11.832-26.386-26.386c0-14.546,11.839-26.38,26.386-26.38c14.544,0,26.384,11.834,26.384,26.38&#xD;&#xA;&#x9;&#x9;C75.407,63.572,63.567,75.404,49.023,75.404z"/>
  <linearGradient id="SVGID_8_" gradientUnits="userSpaceOnUse" x1="49.0225" y1="77.9785" x2="49.0225" y2="20.0625">
    <stop offset="0" style="stop-color:#000000;stop-opacity:0.2"/>
    <stop offset="1" style="stop-color:#000000;stop-opacity:0.3"/>
  </linearGradient>
  <circle fill="url(#SVGID_8_)" cx="49.023" cy="49.02" r="28.96"/>
  <linearGradient id="SVGID_9_" gradientUnits="userSpaceOnUse" x1="49.0225" y1="20.0605" x2="49.0225" y2="52.0527">
    <stop offset="0" style="stop-color:#000000;stop-opacity:0.5"/>
    <stop offset="1" style="stop-color:#000000;stop-opacity:0.4"/>
  </linearGradient>
  <path fill="url(#SVGID_9_)" d="M77.983,49.018c0,1.023-0.057,2.039-0.164,3.035c-6.73-8.488-17.129-13.922-28.796-13.922&#xD;&#xA;&#x9;&#x9;c-11.669,0-22.067,5.434-28.797,13.922c-0.108-0.996-0.164-2.012-0.164-3.035c0-15.986,12.964-28.957,28.961-28.957&#xD;&#xA;&#x9;&#x9;S77.983,33.031,77.983,49.018z"/>
  <radialGradient id="SVGID_10_" cx="49.0215" cy="49.0205" r="28.7744" gradientUnits="userSpaceOnUse">
    <stop offset="0" style="stop-color:#000000;stop-opacity:0.15"/>
    <stop offset="0.8344" style="stop-color:#000000;stop-opacity:0.35"/>
    <stop offset="1" style="stop-color:#000000;stop-opacity:0.6"/>
  </radialGradient>
  <path fill="url(#SVGID_10_)" d="M49.022,20.247c-15.893,0-28.775,12.881-28.775,28.772c0,15.893,12.883,28.775,28.775,28.775&#xD;&#xA;&#x9;&#x9;c15.891,0,28.773-12.883,28.773-28.775C77.796,33.128,64.913,20.247,49.022,20.247z"/>
</svg>