<svg version="1.2" baseProfile="tiny" viewBox="0 0 14.0 3.053" xmlns:xlink="http://www.w3.org/1999/xlink" xmlns="http://www.w3.org/2000/svg">
<path style="fill:#ffffff;" d="M10.949,1.527C10.949,0.683,11.6311,0.0010,12.472,0.0010C13.316,0.0010,14.0,0.683,14.0,1.527C14.0,2.371,13.316,3.051,12.473,3.051C11.6311,3.052,10.949,2.371,10.949,1.527M6.9971,3.053C7.839,3.053,8.5219,2.371,8.5219,1.528C8.5219,0.683,7.839,0.0,6.9971,0.0C6.153,0.0,5.472,0.683,5.472,1.527C5.472,2.371,6.153,3.053,6.9971,3.053M1.5161,3.053C2.36,3.053,3.043,2.371,3.043,1.528C3.043,0.683,2.359,0.0,1.5161,0.0C0.678,0.0,0.0,0.683,0.0,1.527C0.0,2.371,0.678,3.053,1.5161,3.053Z"/>
</svg>