<svg version="1.2" baseProfile="tiny" viewBox="0 0 14.0 10.08" xmlns:xlink="http://www.w3.org/1999/xlink" xmlns="http://www.w3.org/2000/svg">
<path style="fill:#ffffff;" d="M4.8131,10.08C4.7419,10.08,4.671,10.061,4.6089,10.021L0.176,6.119C0.065,6.05,0.0,5.93,0.0,5.8C0.0,5.671,0.065,5.552,0.175,5.48L4.611,1.57C4.7291,1.497,4.8761,1.492,4.998,1.558C5.119,1.625,5.196,1.752,5.196,1.891L5.192,4.062L10.3221,4.063L10.3221,0.379C10.3221,0.17,10.491,0.0,10.702,0.0L13.62,0.0C13.83,0.0,14.0,0.17,14.0,0.379L14.0,7.36C14.0,7.57,13.83,7.741,13.62,7.741L5.195,7.741L5.195,7.741L5.192,9.701C5.192,9.84,5.116,9.967,4.9939,10.034C4.9379,10.065,4.8749,10.08,4.8131,10.08Z"/>
</svg>