<svg version="1.2" baseProfile="tiny" viewBox="0 0 18.000 18.000" xmlns:xlink="http://www.w3.org/1999/xlink" xmlns="http://www.w3.org/2000/svg">
<path style="fill:#ffffff;" d="M15.269,7.905H18v2.189h-2.731   C15.33,9.739,15.363,9.374,15.363,9C15.363,8.627,15.329,8.26,15.269,7.905L15.269,7.905z M16.137,14.59l-1.547,1.548l-1.932-1.931   c0.601-0.424,1.124-0.948,1.547-1.551L16.137,14.59L16.137,14.59z M10.095,15.269V18H7.904v-2.731C8.26,15.33,8.625,15.363,9,15.363   C9.373,15.363,9.739,15.33,10.095,15.269L10.095,15.269z M5.342,14.208l-1.933,1.931L1.862,14.59l1.931-1.934   C4.217,13.259,4.741,13.784,5.342,14.208L5.342,14.208z M2.731,10.094H0V7.905h2.731C2.669,8.26,2.637,8.627,2.637,9   C2.637,9.374,2.669,9.739,2.731,10.094L2.731,10.094z M3.793,5.342L1.862,3.411l1.547-1.548l1.933,1.932   C4.74,4.216,4.217,4.741,3.793,5.342L3.793,5.342z M7.904,2.731V0h2.191v2.731C9.739,2.669,9.373,2.636,9,2.636   C8.625,2.636,8.26,2.669,7.904,2.731L7.904,2.731z M12.658,3.792l1.932-1.93l1.547,1.549l-1.932,1.931   C13.782,4.741,13.259,4.216,12.658,3.792L12.658,3.792z M8.999,13.536c2.505,0,4.537-2.029,4.537-4.536   c0-2.505-2.032-4.536-4.537-4.536S4.463,6.494,4.463,9C4.463,11.506,6.494,13.536,8.999,13.536z"/>
</svg>