<svg version="1.2" baseProfile="tiny" viewBox="0 0 32 32" xmlns:xlink="http://www.w3.org/1999/xlink" xmlns="http://www.w3.org/2000/svg">
<path style="fill:#ffffff;" d="M16,31.75C7.315,31.75,0.25,24.685,0.25,16C0.25,7.315,7.315,0.25,16,0.25C24.685,0.25,31.75,7.315,31.75,16C31.75,24.685,24.685,31.75,16,31.75ZM16,1.75C8.143,1.75,1.75,8.143,1.75,16C1.75,23.857,8.143,30.25,16,30.25C23.857,30.25,30.25,23.857,30.25,16C30.25,8.143,23.857,1.75,16,1.75Z M13.7729,15.389C13.7729,18.91,12.4659,20.854,10.1719,20.854C8.14995,20.854,6.77895,18.958,6.74695,15.533C6.74695,12.06,8.24495,10.149,10.3479,10.149C12.5309,10.148,13.7729,12.091,13.7729,15.389ZM8.14995,15.548C8.14995,18.24,8.97795,19.769,10.2529,19.769C11.6869,19.769,12.3719,18.097,12.3719,15.452C12.3719,12.903,11.7189,11.23,10.2679,11.23C9.04195,11.231,8.14995,12.729,8.14995,15.548Z M15.179,19.85C15.179,19.26,15.577,18.846,16.135,18.846C16.693,18.846,17.074,19.26,17.074,19.85C17.074,20.423,16.708,20.854,16.119,20.854C15.562,20.854,15.179,20.423,15.179,19.85Z M25.2479,15.389C25.2479,18.91,23.9409,20.854,21.6469,20.854C19.6249,20.854,18.2539,18.958,18.2219,15.533C18.2219,12.06,19.7199,10.149,21.8229,10.149C24.0059,10.148,25.2479,12.091,25.2479,15.389ZM19.6249,15.548C19.6249,18.24,20.4529,19.769,21.7279,19.769C23.1619,19.769,23.8469,18.097,23.8469,15.452C23.8469,12.903,23.1939,11.23,21.7429,11.23C20.5169,11.231,19.6249,12.729,19.6249,15.548Z"/>
</svg>