<svg version="1.2" baseProfile="tiny" viewBox="0 0 18.000 18.000" xmlns:xlink="http://www.w3.org/1999/xlink" xmlns="http://www.w3.org/2000/svg">
<path style="fill:#ffffff;" d="M9,0C4.03,0,0,4.031,0,9.001C0,13.972,4.03,18,9,18c4.972,0,9-4.028,9-8.999C18,4.031,13.972,0,9,0z    M14.483,12.419c0.574,0.575,0.574,1.491,0.009,2.067c-0.292,0.282-0.658,0.426-1.033,0.426c-0.374,0-0.751-0.144-1.033-0.426   l-3.434-3.424l-3.417,3.415c-0.283,0.284-0.658,0.435-1.033,0.435c-0.375,0-0.742-0.15-1.033-0.435   c-0.567-0.567-0.567-1.491,0.007-2.059l3.417-3.416L3.517,5.585C2.942,5.019,2.942,4.095,3.51,3.518   c0.575-0.565,1.499-0.565,2.066,0l3.425,3.427l3.425-3.427c0.574-0.574,1.491-0.574,2.066,0c0.565,0.567,0.565,1.494-0.009,2.06   l-3.426,3.426L14.483,12.419z"/>
</svg>