<svg width="32" height="32" viewBox="0 0 32 32" fill="none" xmlns="http://www.w3.org/2000/svg">
<path d="M22.215 16.394L16.76 24.457C16.512 24.823 16.608 25.32 16.974 25.568C17.34 25.815 17.837 25.72 18.085 25.354L23.83 16.863C24.006 16.602 24.014 16.263 23.848 15.995L18.103 6.67501C17.952 6.43001 17.69 6.29501 17.421 6.29501C17.278 6.29501 17.133 6.33301 17.002 6.41401C16.626 6.64601 16.509 7.13901 16.741 7.51501L22.215 16.394Z" fill="#6A6A6A"/>
<path d="M8.152 7.51401L13.626 16.394L8.17 24.457C7.922 24.823 8.018 25.32 8.384 25.568C8.75 25.815 9.247 25.72 9.495 25.354L15.24 16.863C15.416 16.602 15.424 16.263 15.258 15.995L9.513 6.67501C9.362 6.43001 9.1 6.29501 8.832 6.29501C8.689 6.29501 8.544 6.33301 8.413 6.41401C8.037 6.64601 7.92 7.13801 8.152 7.51401Z" fill="#6A6A6A"/>
</svg>
