<svg version="1.2" baseProfile="tiny" viewBox="0 0 32 32" xmlns:xlink="http://www.w3.org/1999/xlink" xmlns="http://www.w3.org/2000/svg">
<path style="fill:#ffffff;" d="M27.701,5.459C24.718,2.148,20.453,0.25,16,0.25C7.315,0.25,0.25,7.315,0.25,16C0.25,20.416,2.121,24.656,5.384,27.635C8.29,30.288,12.061,31.75,16,31.75C16.414,31.75,16.75,31.414,16.75,31C16.75,30.586,16.414,30.25,16,30.25C12.436,30.25,9.024,28.928,6.396,26.527C3.443,23.832,1.75,19.995,1.75,16C1.75,8.143,8.143,1.75,16,1.75C20.029,1.75,23.888,3.468,26.588,6.463C28.949,9.083,30.25,12.47,30.25,16C30.25,16.414,30.586,16.75,31,16.75C31.414,16.75,31.75,16.414,31.75,16C31.75,12.098,30.312,8.354,27.701,5.459Z M16.949,14.218C16.945,14.213,16.943,14.207,16.939,14.202L16.875,14.135C16.837,14.093,16.8,14.049,16.758,14.012L10.084,6.96299C9.79602,6.65799,9.32102,6.62299,8.99002,6.88299C8.65902,7.14299,8.58102,7.61199,8.81002,7.96499L14.189,16.272C14.191,16.275,14.195,16.276,14.197,16.279C14.203,16.288,14.207,16.297,14.213,16.306C14.483,16.68,14.882,16.926,15.337,16.999C15.43,17.014,15.522,17.021,15.614,17.021C15.974,17.021,16.324,16.908,16.621,16.693C16.994,16.423,17.24,16.024,17.313,15.569C17.387,15.114,17.278,14.658,17.008,14.285C16.99,14.261,16.967,14.242,16.949,14.218Z M6.59803,22.378C6.31503,22.076,5.83903,22.062,5.53803,22.346C5.23603,22.63,5.22203,23.105,5.50603,23.406C8.20403,26.272,11.853,28.014,15.781,28.312C15.801,28.313,15.819,28.314,15.839,28.314C16.228,28.314,16.556,28.014,16.586,27.621C16.617,27.208,16.308,26.848,15.895,26.816C12.341,26.547,9.03903,24.971,6.59803,22.378Z M23.101,6.16701C22.802,6.45401,22.792,6.92901,23.08,7.22801C25.524,9.77201,26.932,13.117,27.043,16.644C27.057,17.05,27.39,17.371,27.793,17.371C27.801,17.371,27.809,17.371,27.816,17.371C28.23,17.357,28.555,17.012,28.543,16.598C28.419,12.699,26.863,9.00201,24.162,6.19001C23.874,5.89001,23.399,5.87901,23.101,6.16701Z"/>
</svg>