<svg version="1.2" baseProfile="tiny" viewBox="0 0 98.046 98.045" xmlns:xlink="http://www.w3.org/1999/xlink" xmlns="http://www.w3.org/2000/svg">
<path style="fill:#ffffff;" d="M34.3877,65.5294L34.3877,30.0429L49.4701,30.0429L49.4701,30.0429C53.2635,30.0429,56.0186,30.3626,57.7383,30.9999C59.4571,31.6391,60.8317,32.7706,61.8651,34.402C62.8994,36.0306,63.4142,37.8944,63.4142,39.9935C63.4142,42.6555,62.6308,44.8546,61.066,46.588C59.5012,48.3244,57.1618,49.4176,54.0449,49.8686C55.596,50.7726,56.8745,51.7638,57.8844,52.8463C58.8923,53.9257,60.2522,55.8484,61.9631,58.6064L66.2948,65.5303L57.7246,65.5303L52.5448,57.8093C50.7025,55.0493,49.4466,53.309,48.77,52.5923C48.0925,51.8746,47.3739,51.3824,46.614,51.1148C45.8581,50.8471,44.6541,50.7148,43.0098,50.7148L41.5568,50.7148L41.5568,65.5294L34.3877,65.5294L34.3877,65.5294M41.5548,45.0527L46.8552,45.0527C50.2927,45.0527,52.4409,44.9056,53.2929,44.6173C54.1518,44.3261,54.8214,43.8261,55.3058,43.1172C55.7911,42.4064,56.0323,41.5172,56.0323,40.4534C56.0323,39.2592,55.7127,38.2934,55.0754,37.562C54.4391,36.8267,53.54,36.3619,52.3762,36.1688C51.7957,36.0874,50.0544,36.0462,47.1493,36.0462L41.5558,36.0462L41.5558,45.0527Z"/>
</svg>