<svg version="1.2" baseProfile="tiny" viewBox="0 0 14.625 18.000" xmlns:xlink="http://www.w3.org/1999/xlink" xmlns="http://www.w3.org/2000/svg">
<path style="fill:#ffffff;" d="M10.547,7.361c0.271-0.043,0.625-0.477,0.625-0.077c0,2.403-1.559,4.552-3.861,4.552   c-2.293,0-3.884-2.098-3.884-4.502c0-0.398,0.381-0.016,0.652,0.027C4.589,7.442,5.1,7.453,5.373,7.453h3.879   C9.525,7.453,10.038,7.442,10.547,7.361z M3.18,6.104C3.662,6.361,4.672,6.427,5.3,6.427h3.962c0.627,0,1.637-0.065,2.118-0.323   c0.476-0.253,1.063-0.584,1.082-0.907c0.015-0.321-0.13-0.617-0.384-0.661c-0.256-0.044-0.652-0.186-0.83-1.074   c-0.176-0.887-0.28-1.661-1.594-2.231C9.627,1.178,9.561,1.118,9.467,1.057C9.389,1.6,9.122,3.441,9.09,3.619   C9.052,3.828,8.824,4.074,8.71,3.656c-0.099-0.36-0.239-2.453-0.274-3.024C8.391,0.621,8.348,0.608,8.305,0.6   C8.198,0.484,7.85,0,7.28,0C6.708,0,6.361,0.484,6.251,0.6C6.214,0.607,6.176,0.618,6.137,0.629   C6.101,1.195,5.959,3.296,5.861,3.656c-0.114,0.418-0.343,0.172-0.38-0.037C5.448,3.439,5.18,1.585,5.104,1.051   C5.006,1.114,4.933,1.177,4.905,1.229C3.59,1.8,3.487,2.574,3.307,3.461C3.132,4.35,2.739,4.491,2.48,4.535   C2.226,4.579,2.082,4.875,2.1,5.196C2.116,5.52,2.699,5.851,3.18,6.104z M12.156,10.324c-0.26-0.113-0.504-0.217-0.739-0.316   c-0.692,1.648-2.272,2.807-4.106,2.807c-1.828,0-3.408-1.157-4.102-2.807c-0.237,0.1-0.479,0.203-0.734,0.316   C0.943,11.004,0,14.289,0,15.32c0,1.037,0.943,0.801,2.475,1.479C3.998,17.477,4.982,18,7.314,18c2.331,0,3.313-0.523,4.842-1.201   c1.525-0.678,2.469-0.441,2.469-1.479C14.625,14.289,13.684,11.004,12.156,10.324z"/>
</svg>